<?xml version="1.0" standalone="yes"?>
<svg xmlns="http://www.w3.org/2000/svg" width="800" height="820">
<path style="fill:transparent; stroke:none;" d="M0 0L0 820L860 820L860 0L0 0z"/>
<path style="fill:#c7e3cf; stroke:none;" d="M529 41C530.506 41.6831 531.315 41.8259 533 42C531.494 41.3169 530.685 41.1741 529 41z"/>
<path style="fill:#8ec69e; stroke:none;" d="M533 41C535.332 41.9846 537.456 41.9813 540 42C537.668 41.0154 535.543 41.0187 533 41z"/>
<path style="fill:#56aa6e; stroke:none;" d="M540 41C544.471 42.8763 550.183 42 555 42C550.529 40.1237 544.817 41 540 41z"/>
<path style="fill:#8ec69e; stroke:none;" d="M555 41C557.052 41.8743 558.747 41.9528 561 42C558.948 41.1257 557.253 41.0472 555 41z"/>
<path style="fill:#c7e3cf; stroke:none;" d="M561 41C562.506 41.6831 563.315 41.8259 565 42C563.494 41.3169 562.685 41.1741 561 41M518 42C519.248 42.6848 519.548 42.7488 521 43C519.752 42.3152 519.452 42.2512 518 42z"/>
<path style="fill:#8ec69e; stroke:none;" d="M521.667 42.3333C521.222 42.7778 522.278 42.7222 522.333 42.6667C522.778 42.2221 521.722 42.2776 521.667 42.3333z"/>
<path style="fill:#56aa6e; stroke:none;" d="M523 42C524.248 42.6847 524.549 42.7488 526 43C524.752 42.3152 524.452 42.2512 523 42z"/>
<path style="fill:#1e8e3e; stroke:none;" d="M296 276C303.706 275.841 311.236 274.699 319 275.039C359.313 276.805 399.602 287.871 435 307.312C451.357 316.295 464.83 328.439 480 339C478.142 334.09 474.952 329.84 472.873 325C467.967 313.58 465.495 301.417 466.039 289C468.038 243.433 511.062 207.362 556 212.174C569.407 213.609 583.176 219.249 594 227.159C599.486 231.168 603.815 236.338 609 240.675C617.142 247.487 626.883 253.179 637 256.48C673.894 268.517 717.491 253.644 737.547 220C749.092 200.633 751.843 177.912 747.83 156C743.091 130.119 723.697 111.709 704 96.0038C658.48 59.7094 602.774 42 545 42C448.164 42 358.749 99.9149 318.309 188C310.289 205.467 304.176 224.098 300.611 243C298.548 253.942 298.024 265.098 296 276z"/>
<path style="fill:#56aa6e; stroke:none;" d="M568 42C569.248 42.6847 569.549 42.7488 571 43C569.752 42.3152 569.452 42.2512 568 42z"/>
<path style="fill:#8ec69e; stroke:none;" d="M571.667 42.3333C571.222 42.7778 572.278 42.7222 572.333 42.6667C572.778 42.2221 571.722 42.2776 571.667 42.3333z"/>
<path style="fill:#c7e3cf; stroke:none;" d="M573 42C574.248 42.6848 574.548 42.7488 576 43C574.752 42.3152 574.451 42.2512 573 42z"/>
<path style="fill:#aad4b6; stroke:none;" d="M511 43C512.248 43.6848 512.548 43.7488 514 44C512.752 43.3152 512.452 43.2512 511 43z"/>
<path style="fill:#56aa6e; stroke:none;" d="M514.667 43.3333C514.222 43.7778 515.278 43.7222 515.333 43.6667C515.778 43.2221 514.722 43.2776 514.667 43.3333z"/>
<path style="fill:#64b17a; stroke:none;" d="M578.667 43.3333C578.222 43.7778 579.278 43.7222 579.333 43.6667C579.778 43.2221 578.722 43.2776 578.667 43.3333z"/>
<path style="fill:#9ccdaa; stroke:none;" d="M580.667 43.3333C580.222 43.7778 581.278 43.7222 581.333 43.6667C581.778 43.2221 580.722 43.2776 580.667 43.3333z"/>
<path style="fill:#e1f2e6; stroke:none;" d="M582.667 43.3333C582.222 43.7778 583.278 43.7222 583.333 43.6667C583.778 43.2222 582.722 43.2775 582.667 43.3333z"/>
<path style="fill:#b8dcc2; stroke:none;" d="M504.667 44.3333C504.222 44.7781 505.278 44.722 505.333 44.6667C505.778 44.2223 504.722 44.2776 504.667 44.3333z"/>
<path style="fill:#64b17a; stroke:none;" d="M506 44C507.248 44.6848 507.549 44.7488 509 45C507.752 44.3152 507.452 44.2512 506 44M585 44C586.248 44.6848 586.548 44.7488 588 45C586.752 44.3152 586.452 44.2512 585 44z"/>
<path style="fill:#d6ecdc; stroke:none;" d="M588.667 44.3333C588.222 44.778 589.278 44.7221 589.333 44.6667C589.778 44.222 588.722 44.2778 588.667 44.3333z"/>
<path style="fill:#9ccdaa; stroke:none;" d="M499.667 45.3333C499.222 45.778 500.278 45.722 500.333 45.6667C500.778 45.2223 499.722 45.2777 499.667 45.3333z"/>
<path style="fill:#56aa6e; stroke:none;" d="M501.667 45.3333C501.222 45.7781 502.278 45.722 502.333 45.6667C502.778 45.2223 501.722 45.2777 501.667 45.3333z"/>
<path style="fill:#8ec69e; stroke:none;" d="M592.667 45.3333C592.222 45.7778 593.278 45.7222 593.333 45.6667C593.778 45.2221 592.722 45.2776 592.667 45.3333z"/>
<path style="fill:#c7e3cf; stroke:none;" d="M494 46L495 47L494 46z"/>
<path style="fill:#64b17a; stroke:none;" d="M495.667 46.3333C495.222 46.778 496.278 46.7221 496.333 46.6667C496.778 46.2224 495.722 46.2776 495.667 46.3333z"/>
<path style="fill:#8ec69e; stroke:none;" d="M597.667 46.3333C597.222 46.7777 598.278 46.7223 598.333 46.6667C598.778 46.2221 597.722 46.2776 597.667 46.3333z"/>
<path style="fill:#c7e3cf; stroke:none;" d="M599 46L600 47L599 46z"/>
<path style="fill:#80bf92; stroke:none;" d="M490.667 47.3333C490.222 47.778 491.278 47.722 491.333 47.6667C491.778 47.2224 490.722 47.2776 490.667 47.3333z"/>
<path style="fill:#72b886; stroke:none;" d="M602 47L603 48L602 47z"/>
<path style="fill:#aad4b6; stroke:none;" d="M603 47L604 48L603 47z"/>
<path style="fill:#72b886; stroke:none;" d="M486.667 48.3333C486.222 48.778 487.278 48.7221 487.333 48.6667C487.778 48.2223 486.722 48.2776 486.667 48.3333z"/>
<path style="fill:#64b17a; stroke:none;" d="M606 48L607 49L606 48z"/>
<path style="fill:#9ccdaa; stroke:none;" d="M607 48L608 49L607 48z"/>
<path style="fill:#aad4b6; stroke:none;" d="M482 49L483 50L482 49z"/>
<path style="fill:#72b886; stroke:none;" d="M483 49L484 50L483 49z"/>
<path style="fill:#64b17a; stroke:none;" d="M610 49L611 50L610 49z"/>
<path style="fill:#aad4b6; stroke:none;" d="M611 49L612 50L611 49z"/>
<path style="fill:#b8dcc2; stroke:none;" d="M478 50L479 51L478 50z"/>
<path style="fill:#80bf92; stroke:none;" d="M479 50L480 51L479 50z"/>
<path style="fill:#72b886; stroke:none;" d="M614 50L615 51L614 50z"/>
<path style="fill:#b8dcc2; stroke:none;" d="M615 50L616 51L615 50z"/>
<path style="fill:#9ccdaa; stroke:none;" d="M475 51L476 52L475 51z"/>
<path style="fill:#64b17a; stroke:none;" d="M476 51L477 52L476 51z"/>
<path style="fill:#56aa6e; stroke:none;" d="M617 51L618 52L617 51z"/>
<path style="fill:#9ccdaa; stroke:none;" d="M618 51L619 52L618 51z"/>
<path style="fill:#80bf92; stroke:none;" d="M472 52L473 53L472 52M621 52L622 53L621 52z"/>
<path style="fill:#b8dcc2; stroke:none;" d="M468 53L469 54L468 53z"/>
<path style="fill:#80bf92; stroke:none;" d="M469 53L470 54L469 53z"/>
<path style="fill:#72b886; stroke:none;" d="M624 53L625 54L624 53z"/>
<path style="fill:#b8dcc2; stroke:none;" d="M625 53L626 54L625 53z"/>
<path style="fill:#c7e3cf; stroke:none;" d="M465 54L466 55L465 54z"/>
<path style="fill:#72b886; stroke:none;" d="M466 54L467 55L466 54M627 54L628 55L627 54z"/>
<path style="fill:#b8dcc2; stroke:none;" d="M628 54L629 55L628 54z"/>
<path style="fill:#80bf92; stroke:none;" d="M463 55L464 56L463 55z"/>
<path style="fill:#72b886; stroke:none;" d="M630 55L631 56L630 55z"/>
<path style="fill:#9ccdaa; stroke:none;" d="M460 56L461 57L460 56z"/>
<path style="fill:#8ec69e; stroke:none;" d="M633 56L634 57L633 56z"/>
<path style="fill:#aad4b6; stroke:none;" d="M457 57L458 58L457 57z"/>
<path style="fill:#56aa6e; stroke:none;" d="M458 57L459 58L458 57z"/>
<path style="fill:#aad4b6; stroke:none;" d="M636 57L637 58L636 57z"/>
<path style="fill:#72b886; stroke:none;" d="M455 58L456 59L455 58M638 58L639 59L638 58z"/>
<path style="fill:#c7e3cf; stroke:none;" d="M639 58L640 59L639 58z"/>
<path style="fill:#aad4b6; stroke:none;" d="M452 59L453 60L452 59z"/>
<path style="fill:#9ccdaa; stroke:none;" d="M641 59L642 60L641 59z"/>
<path style="fill:#72b886; stroke:none;" d="M450 60L451 61L450 60M643 60L644 61L643 60z"/>
<path style="fill:#aad4b6; stroke:none;" d="M447 61L448 62L447 61z"/>
<path style="fill:#56aa6e; stroke:none;" d="M448 61L449 62L448 61M645 61L646 62L645 61z"/>
<path style="fill:#aad4b6; stroke:none;" d="M646 61L647 62L646 61z"/>
<path style="fill:#9ccdaa; stroke:none;" d="M445 62L446 63L445 62z"/>
<path style="fill:#8ec69e; stroke:none;" d="M648 62L649 63L648 62z"/>
<path style="fill:#80bf92; stroke:none;" d="M443 63L444 64L443 63z"/>
<path style="fill:#72b886; stroke:none;" d="M650 63L651 64L650 63M441 64L442 65L441 64M652 64L653 65L652 64z"/>
<path style="fill:#c7e3cf; stroke:none;" d="M653 64L654 65L653 64M438 65L439 66L438 65z"/>
<path style="fill:#56aa6e; stroke:none;" d="M439 65L440 66L439 65M654 65L655 66L654 65z"/>
<path style="fill:#c7e3cf; stroke:none;" d="M655 65L656 66L655 65M436 66L437 67L436 66z"/>
<path style="fill:#56aa6e; stroke:none;" d="M437 66L438 67L437 66M656 66L657 67L656 66z"/>
<path style="fill:#c7e3cf; stroke:none;" d="M657 66L658 67L657 66M434 67L435 68L434 67z"/>
<path style="fill:#56aa6e; stroke:none;" d="M435 67L436 68L435 67z"/>
<path style="fill:#aad4b6; stroke:none;" d="M659 67L660 68L659 67z"/>
<path style="fill:#c7e3cf; stroke:none;" d="M432 68L433 69L432 68z"/>
<path style="fill:#56aa6e; stroke:none;" d="M433 68L434 69L433 68z"/>
<path style="fill:#c7e3cf; stroke:none;" d="M661 68L662 69L661 68M430 69L431 70L430 69z"/>
<path style="fill:#56aa6e; stroke:none;" d="M431 69L432 70L431 69M662 69L663 70L662 69z"/>
<path style="fill:#c7e3cf; stroke:none;" d="M663 69L664 70L663 69z"/>
<path style="fill:#56aa6e; stroke:none;" d="M429 70L430 71L429 70M664 70L665 71L664 70z"/>
<path style="fill:#c7e3cf; stroke:none;" d="M665 70L666 71L665 70z"/>
<path style="fill:#72b886; stroke:none;" d="M427 71L428 72L427 71z"/>
<path style="fill:#64b17a; stroke:none;" d="M666 71L667 72L666 71z"/>
<path style="fill:#80bf92; stroke:none;" d="M425 72L426 73L425 72z"/>
<path style="fill:#72b886; stroke:none;" d="M668 72L669 73L668 72z"/>
<path style="fill:#9ccdaa; stroke:none;" d="M423 73L424 74L423 73z"/>
<path style="fill:#8ec69e; stroke:none;" d="M670 73L671 74L670 73z"/>
<path style="fill:#c7e3cf; stroke:none;" d="M421 74L422 75L421 74z"/>
<path style="fill:#b8dcc2; stroke:none;" d="M672 74L673 75L672 74z"/>
<path style="fill:#56aa6e; stroke:none;" d="M420 75L421 76L420 75M673 75L674 76L673 75z"/>
<path style="fill:#8ec69e; stroke:none;" d="M418 76L419 77L418 76z"/>
<path style="fill:#80bf92; stroke:none;" d="M675 76L676 77L675 76z"/>
<path style="fill:#b8dcc2; stroke:none;" d="M416 77L417 78L416 77z"/>
<path style="fill:#aad4b6; stroke:none;" d="M677 77L678 78L677 77z"/>
<path style="fill:#56aa6e; stroke:none;" d="M415 78L416 79L415 78M678 78L679 79L678 78z"/>
<path style="fill:#8ec69e; stroke:none;" d="M413 79L414 80L413 79M680 79L681 80L680 79z"/>
<path style="fill:#c7e3cf; stroke:none;" d="M411 80L412 81L411 80M682 80L683 81L682 80z"/>
<path style="fill:#80bf92; stroke:none;" d="M410 81L411 82L410 81z"/>
<path style="fill:#72b886; stroke:none;" d="M683 81L684 82L683 81z"/>
<path style="fill:#c7e3cf; stroke:none;" d="M408 82L409 83L408 82z"/>
<path style="fill:#b8dcc2; stroke:none;" d="M685 82L686 83L685 82z"/>
<path style="fill:#80bf92; stroke:none;" d="M407 83L408 84L407 83z"/>
<path style="fill:#64b17a; stroke:none;" d="M686 83L687 84L686 83z"/>
<path style="fill:#c7e3cf; stroke:none;" d="M405 84L406 85L405 84z"/>
<path style="fill:#b8dcc2; stroke:none;" d="M688 84L689 85L688 84z"/>
<path style="fill:#80bf92; stroke:none;" d="M404 85L405 86L404 85M689 85L690 86L689 85z"/>
<path style="fill:#c7e3cf; stroke:none;" d="M691 86L692 87L691 86z"/>
<path style="fill:#8ec69e; stroke:none;" d="M401 87L402 88L401 87M692 87L693 88L692 87z"/>
<path style="fill:#56aa6e; stroke:none;" d="M400 88L401 89L400 88z"/>
<path style="fill:#b8dcc2; stroke:none;" d="M398 89L399 90L398 89z"/>
<path style="fill:#aad4b6; stroke:none;" d="M695 89L696 90L695 89z"/>
<path style="fill:#80bf92; stroke:none;" d="M397 90L398 91L397 90z"/>
<path style="fill:#72b886; stroke:none;" d="M696 90L697 91L696 90z"/>
<path style="fill:#b8dcc2; stroke:none;" d="M394 92L395 93L394 92z"/>
<path style="fill:#aad4b6; stroke:none;" d="M699 92L700 93L699 92z"/>
<path style="fill:#80bf92; stroke:none;" d="M393 93L394 94L393 93z"/>
<path style="fill:#72b886; stroke:none;" d="M700 93L701 94L700 93z"/>
<path style="fill:#56aa6e; stroke:none;" d="M392 94L393 95L392 94z"/>
<path style="fill:#c7e3cf; stroke:none;" d="M703 95L704 96L703 95z"/>
<path style="fill:#aad4b6; stroke:none;" d="M389 96L390 97L389 96z"/>
<path style="fill:#9ccdaa; stroke:none;" d="M704 96L705 97L704 96z"/>
<path style="fill:#72b886; stroke:none;" d="M388 97L389 98L388 97M705 97L706 98L705 97z"/>
<path style="fill:#56aa6e; stroke:none;" d="M387 98L388 99L387 98z"/>
<path style="fill:#c7e3cf; stroke:none;" d="M384 100L385 101L384 100z"/>
<path style="fill:#aad4b6; stroke:none;" d="M709 100L710 101L709 100M383 101L384 102L383 101z"/>
<path style="fill:#9ccdaa; stroke:none;" d="M710 101L711 102L710 101z"/>
<path style="fill:#80bf92; stroke:none;" d="M382 102L383 103L382 102z"/>
<path style="fill:#72b886; stroke:none;" d="M711 102L712 103L711 102M381 103L382 104L381 103z"/>
<path style="fill:#64b17a; stroke:none;" d="M712 103L713 104L712 103z"/>
<path style="fill:#c7e3cf; stroke:none;" d="M717 107L718 108L717 107M375 108L376 109L375 108z"/>
<path style="fill:#aad4b6; stroke:none;" d="M718 108L719 109L718 108M374 109L375 110L374 109M719 109L720 110L719 109M373 110L374 111L373 110M720 110L721 111L720 110M372 111L373 112L372 111M721 111L722 112L721 111M371 112L372 113L371 112z"/>
<path style="fill:#80bf92; stroke:none;" d="M722 112L723 113L722 112z"/>
<path style="fill:#aad4b6; stroke:none;" d="M370 113L371 114L370 113z"/>
<path style="fill:#72b886; stroke:none;" d="M723 113L724 114L723 113z"/>
<path style="fill:#aad4b6; stroke:none;" d="M369 114L370 115L369 114z"/>
<path style="fill:#72b886; stroke:none;" d="M724 114L725 115L724 114z"/>
<path style="fill:#aad4b6; stroke:none;" d="M368 115L369 116L368 115M367 116L368 117L367 116z"/>
<path style="fill:#5ab272; stroke:none;" d="M726 116L727 117L726 116z"/>
<path style="fill:#aad4b6; stroke:none;" d="M366 117L367 118L366 117z"/>
<path style="fill:#73c388; stroke:none;" d="M727 117L728 118L727 117z"/>
<path style="fill:#aad4b6; stroke:none;" d="M365 118L366 119L365 118z"/>
<path style="fill:#80bf92; stroke:none;" d="M728 118L729 119L728 118z"/>
<path style="fill:#aad4b6; stroke:none;" d="M364 119L365 120L364 119z"/>
<path style="fill:#a2d7b1; stroke:none;" d="M729 119L730 120L729 119z"/>
<path style="fill:#aad4b6; stroke:none;" d="M363 120L364 121L363 120z"/>
<path style="fill:#a2d7b1; stroke:none;" d="M730 120L731 121L730 120z"/>
<path style="fill:#c7e3cf; stroke:none;" d="M362 121L363 122L362 121z"/>
<path style="fill:#b7e0c2; stroke:none;" d="M731 121L732 122L731 121z"/>
<path style="fill:#73c388; stroke:none;" d="M734 125L735 126L734 125z"/>
<path style="fill:#79c68e; stroke:none;" d="M735 126L736 127L735 126z"/>
<path style="fill:#72b886; stroke:none;" d="M357 127L358 128L357 127z"/>
<path style="fill:#8ecf9f; stroke:none;" d="M736 127L737 128L736 127z"/>
<path style="fill:#80bf92; stroke:none;" d="M356 128L357 129L356 128z"/>
<path style="fill:#98d3a8; stroke:none;" d="M737 128L738 129L737 128z"/>
<path style="fill:#aad4b6; stroke:none;" d="M355 129L356 130L355 129z"/>
<path style="fill:#5bb974; stroke:none;" d="M737 129C741.926 142.536 749.306 154.073 749.961 169C751.972 214.88 716.232 258.817 669 260.961C655.274 261.584 641.371 258.731 629 252.742C622.463 249.577 616.709 244.581 610 242C621.205 260.157 629.424 277.027 627.911 299C625.107 339.718 584.804 377.873 543 373.83C528.601 372.438 513.709 367.948 502 359.239C491.55 351.466 483.125 340.901 473 332.614C452.794 316.076 429.635 301.795 405 292.861C381.992 284.517 357.502 277.807 333 276.089C232.644 269.056 134.044 322.418 88.7531 413C78.7117 433.083 70.1792 454.725 66.4352 477C54.6206 547.291 67.531 619.078 110.63 677C117.218 685.855 124.57 693.772 131.871 702C134.357 704.801 136.135 708.251 139.054 710.651C179.51 743.924 243.866 737.443 274.279 694C279.707 686.245 283.757 677.296 285.714 668C289.598 649.542 286.083 630.705 277.73 614C274.249 607.038 266.994 600.321 265 593C256.998 587.363 250.387 579.122 245.004 571C236.723 558.507 231.179 542.118 231.179 527C231.179 468.149 299.843 426.856 351 456.465C360.987 462.245 369.394 470.586 376 480C384.359 481.907 393.032 492.196 400 497.37C413.589 507.461 428.628 515.653 444 522.691C502.844 549.635 573.401 551.165 634 528.947C656.379 520.742 677.901 509.407 697 495.105C781.472 431.848 816.966 321.938 788 221C781.048 196.776 770.322 173.975 756.333 153C750.837 144.759 745.049 134.925 737 129z"/>
<path style="fill:#c1e5cb; stroke:none;" d="M738 129L739 130L738 129z"/>
<path style="fill:#c7e3cf; stroke:none;" d="M354 130L355 131L354 130z"/>
<path style="fill:#56aa6e; stroke:none;" d="M352 133L353 134L352 133z"/>
<path style="fill:#80bf92; stroke:none;" d="M351 134L352 135L351 134z"/>
<path style="fill:#98d3a8; stroke:none;" d="M742 134L743 135L742 134z"/>
<path style="fill:#aad4b6; stroke:none;" d="M350 135L351 136L350 135z"/>
<path style="fill:#c1e5cb; stroke:none;" d="M743 135L744 136L743 135z"/>
<path style="fill:#56aa6e; stroke:none;" d="M348 138L349 139L348 138z"/>
<path style="fill:#8ec69e; stroke:none;" d="M347 139L348 140L347 139z"/>
<path style="fill:#a2d7b1; stroke:none;" d="M746 139L747 140L746 139z"/>
<path style="fill:#c7e3cf; stroke:none;" d="M346 140L347 141L346 140z"/>
<path style="fill:#56aa6e; stroke:none;" d="M345 142L346 143L345 142z"/>
<path style="fill:#8ec69e; stroke:none;" d="M344 143L345 144L344 143z"/>
<path style="fill:#a2d7b1; stroke:none;" d="M749 143L750 144L749 143z"/>
<path style="fill:#c7e3cf; stroke:none;" d="M343 144L344 145L343 144z"/>
<path style="fill:#64b17a; stroke:none;" d="M342 146L343 147L342 146z"/>
<path style="fill:#9ccdaa; stroke:none;" d="M341 147L342 148L341 147z"/>
<path style="fill:#addcb9; stroke:none;" d="M752 147L753 148L752 147z"/>
<path style="fill:#8ec69e; stroke:none;" d="M339 150L340 151L339 150z"/>
<path style="fill:#39a156; stroke:none;" d="M746.333 150.667C746.278 150.722 746.222 151.778 746.667 151.333C746.722 151.278 746.778 150.222 746.333 150.667z"/>
<path style="fill:#a2d7b1; stroke:none;" d="M754 150L755 151L754 150z"/>
<path style="fill:#8ec69e; stroke:none;" d="M337 153L338 154L337 153z"/>
<path style="fill:#a2d7b1; stroke:none;" d="M756 153L757 154L756 153z"/>
<path style="fill:#8ec69e; stroke:none;" d="M335 156L336 157L335 156z"/>
<path style="fill:#a2d7b1; stroke:none;" d="M758 156L759 157L758 156z"/>
<path style="fill:#56aa6e; stroke:none;" d="M334 158L335 159L334 158z"/>
<path style="fill:#3da45a; stroke:none;" d="M748 158L748 161C748.696 159.446 748.696 159.554 748 158z"/>
<path style="fill:#9ccdaa; stroke:none;" d="M333 159L334 160L333 159z"/>
<path style="fill:#addcb9; stroke:none;" d="M760 159L761 160L760 159z"/>
<path style="fill:#64b17a; stroke:none;" d="M332 161L333 162L332 161z"/>
<path style="fill:#c7e3cf; stroke:none;" d="M331 162L332 163L331 162z"/>
<path style="fill:#8ec69e; stroke:none;" d="M330 164L331 165L330 164z"/>
<path style="fill:#2d994c; stroke:none;" d="M749 164L749 173C750.256 170.006 750.256 166.994 749 164z"/>
<path style="fill:#addcb9; stroke:none;" d="M763 164L764 165L763 164z"/>
<path style="fill:#72b886; stroke:none;" d="M329 166L330 167L329 166z"/>
<path style="fill:#c7e3cf; stroke:none;" d="M328 167L329 168L328 167z"/>
<path style="fill:#56aa6e; stroke:none;" d="M328 168L329 169L328 168z"/>
<path style="fill:#aad4b6; stroke:none;" d="M327 169L328 170L327 169z"/>
<path style="fill:#c1e5cb; stroke:none;" d="M766 169L767 170L766 169z"/>
<path style="fill:#8ec69e; stroke:none;" d="M326 171L327 172L326 171z"/>
<path style="fill:#addcb9; stroke:none;" d="M767 171L768 172L767 171z"/>
<path style="fill:#8ec69e; stroke:none;" d="M325 173L326 174L325 173z"/>
<path style="fill:#98d3a8; stroke:none;" d="M768 173L769 174L768 173z"/>
<path style="fill:#72b886; stroke:none;" d="M324 175L325 176L324 175z"/>
<path style="fill:#98d3a8; stroke:none;" d="M769 175L770 176L769 175z"/>
<path style="fill:#72b886; stroke:none;" d="M323 177L324 178L323 177M322 179L323 180L322 179M321 181L322 182L321 181M320 183L321 184L320 183M319 185L320 186L319 185z"/>
<path style="fill:#98d3a8; stroke:none;" d="M774 185L775 186L774 185z"/>
<path style="fill:#8ec69e; stroke:none;" d="M318 187L319 188L318 187z"/>
<path style="fill:#98d3a8; stroke:none;" d="M775 187L776 188L775 187z"/>
<path style="fill:#9ccdaa; stroke:none;" d="M317 189L318 190L317 189z"/>
<path style="fill:#addcb9; stroke:none;" d="M776 189L777 190L776 189z"/>
<path style="fill:#aad4b6; stroke:none;" d="M316 191L317 192L316 191z"/>
<path style="fill:#c1e5cb; stroke:none;" d="M777 191L778 192L777 191z"/>
<path style="fill:#56aa6e; stroke:none;" d="M316 192L317 193L316 192z"/>
<path style="fill:#72b886; stroke:none;" d="M315 194L316 195L315 194z"/>
<path style="fill:#9ccdaa; stroke:none;" d="M314 196L315 197L314 196z"/>
<path style="fill:#addcb9; stroke:none;" d="M779 196L780 197L779 196z"/>
<path style="fill:#b8dcc2; stroke:none;" d="M313 198L314 199L313 198z"/>
<path style="fill:#3da45a; stroke:none;" d="M746.333 198.667C746.278 198.722 746.222 199.778 746.667 199.333C746.722 199.278 746.778 198.222 746.333 198.667z"/>
<path style="fill:#c1e5cb; stroke:none;" d="M780 198L781 199L780 198z"/>
<path style="fill:#64b17a; stroke:none;" d="M313 199L314 200L313 199z"/>
<path style="fill:#9ccdaa; stroke:none;" d="M312 201L313 202L312 201z"/>
<path style="fill:#c7e3cf; stroke:none;" d="M311 203L312 204L311 203z"/>
<path style="fill:#72b886; stroke:none;" d="M311 204L312 205L311 204z"/>
<path style="fill:#98d3a8; stroke:none;" d="M782 204L783 205L782 204z"/>
<path style="fill:#aad4b6; stroke:none;" d="M310 206L311 207L310 206z"/>
<path style="fill:#c1e5cb; stroke:none;" d="M783 206L784 207L783 206z"/>
<path style="fill:#64b17a; stroke:none;" d="M310 207L311 208L310 207z"/>
<path style="fill:#9ccdaa; stroke:none;" d="M309 209L310 210L309 209z"/>
<path style="fill:#b7e0c2; stroke:none;" d="M784 209L785 210L784 209z"/>
<path style="fill:#9ccdaa; stroke:none;" d="M308 212L309 213L308 212z"/>
<path style="fill:#64b17a; stroke:none;" d="M535.667 212.333C535.222 212.778 536.278 212.722 536.333 212.667C536.778 212.222 535.722 212.278 535.667 212.333z"/>
<path style="fill:#9ccdaa; stroke:none;" d="M537.667 212.333C537.222 212.778 538.278 212.722 538.333 212.667C538.778 212.222 537.722 212.278 537.667 212.333z"/>
<path style="fill:#c7e3cf; stroke:none;" d="M539 212C540.248 212.685 540.548 212.749 542 213C540.752 212.315 540.452 212.251 539 212z"/>
<path style="fill:#ffffff; stroke:none;" d="M542 212.424C512.706 216.271 487.486 230.229 474.32 258C464.005 279.759 464.03 307.445 474.809 329C489.44 358.258 522.451 376.607 555 372.715C588.279 368.734 616.977 346.286 625.102 313C635.806 269.146 609.02 223.126 564 214.004C556.972 212.58 549.135 211.488 542 212.424z"/>
<path style="fill:#c7e3cf; stroke:none;" d="M552 212C553.248 212.685 553.548 212.749 555 213C553.752 212.315 553.452 212.251 552 212z"/>
<path style="fill:#8ec69e; stroke:none;" d="M555.667 212.333C555.222 212.778 556.278 212.722 556.333 212.667C556.778 212.222 555.722 212.278 555.667 212.333z"/>
<path style="fill:#47a362; stroke:none;" d="M557.667 212.333C557.222 212.778 558.278 212.722 558.333 212.667C558.778 212.222 557.722 212.278 557.667 212.333z"/>
<path style="fill:#8ec69e; stroke:none;" d="M530.667 213.333C530.222 213.778 531.278 213.722 531.333 213.667C531.778 213.222 530.722 213.278 530.667 213.333M561.667 213.333C561.222 213.778 562.278 213.722 562.333 213.667C562.778 213.222 561.722 213.278 561.667 213.333z"/>
<path style="fill:#72b886; stroke:none;" d="M526 214L527 215L526 214z"/>
<path style="fill:#aad4b6; stroke:none;" d="M527 214L528 215L527 214M566 214L567 215L566 214z"/>
<path style="fill:#72b886; stroke:none;" d="M567 214L568 215L567 214z"/>
<path style="fill:#9ccdaa; stroke:none;" d="M307 215L308 216L307 215M523 215L524 216L523 215z"/>
<path style="fill:#8ec69e; stroke:none;" d="M570 215L571 216L570 215z"/>
<path style="fill:#b7e0c2; stroke:none;" d="M786 215L787 216L786 215z"/>
<path style="fill:#56aa6e; stroke:none;" d="M307 216L308 217L307 216z"/>
<path style="fill:#9ccdaa; stroke:none;" d="M520 216L521 217L520 216M573 216L574 217L573 216z"/>
<path style="fill:#80bf92; stroke:none;" d="M517 217L518 218L517 217z"/>
<path style="fill:#72b886; stroke:none;" d="M576 217L577 218L576 217z"/>
<path style="fill:#aad4b6; stroke:none;" d="M306 218L307 219L306 218M515 218L516 219L515 218M578 218L579 219L578 218z"/>
<path style="fill:#84ca96; stroke:none;" d="M787.333 218.667C787.278 218.722 787.222 219.778 787.667 219.333C787.722 219.278 787.778 218.222 787.333 218.667z"/>
<path style="fill:#64b17a; stroke:none;" d="M306 219L307 220L306 219z"/>
<path style="fill:#56aa6e; stroke:none;" d="M512 219L513 220L512 219z"/>
<path style="fill:#c7e3cf; stroke:none;" d="M513 219L514 220L513 219M580 219L581 220L580 219z"/>
<path style="fill:#56aa6e; stroke:none;" d="M581 219L582 220L581 219M510 220L511 221L510 220z"/>
<path style="fill:#c7e3cf; stroke:none;" d="M511 220L512 221L511 220M582 220L583 221L582 220z"/>
<path style="fill:#56aa6e; stroke:none;" d="M583 220L584 221L583 220z"/>
<path style="fill:#b8dcc2; stroke:none;" d="M305 221L306 222L305 221z"/>
<path style="fill:#56aa6e; stroke:none;" d="M508 221L509 222L508 221z"/>
<path style="fill:#c7e3cf; stroke:none;" d="M509 221L510 222L509 221M584 221L585 222L584 221z"/>
<path style="fill:#56aa6e; stroke:none;" d="M585 221L586 222L585 221z"/>
<path style="fill:#98d3a8; stroke:none;" d="M788.333 221.667C788.278 221.722 788.222 222.778 788.667 222.333C788.722 222.278 788.778 221.222 788.333 221.667z"/>
<path style="fill:#80bf92; stroke:none;" d="M305 222L306 223L305 222z"/>
<path style="fill:#b8dcc2; stroke:none;" d="M507 222L508 223L507 222M586 222L587 223L586 222z"/>
<path style="fill:#8ec69e; stroke:none;" d="M505 223L506 224L505 223M588 223L589 224L588 223z"/>
<path style="fill:#56aa6e; stroke:none;" d="M503 224L504 225L503 224M590 224L591 225L590 224z"/>
<path style="fill:#9ccdaa; stroke:none;" d="M304 225L305 226L304 225M502 225L503 226L502 225z"/>
<path style="fill:#b8dcc2; stroke:none;" d="M591 225L592 226L591 225z"/>
<path style="fill:#84ca96; stroke:none;" d="M789.333 225.667C789.278 225.722 789.222 226.778 789.667 226.333C789.722 226.278 789.778 225.222 789.333 225.667z"/>
<path style="fill:#64b17a; stroke:none;" d="M304 226L305 227L304 226z"/>
<path style="fill:#56aa6e; stroke:none;" d="M593 226L594 227L593 226z"/>
<path style="fill:#8ec69e; stroke:none;" d="M499 227L500 228L499 227z"/>
<path style="fill:#9ccdaa; stroke:none;" d="M594 227L595 228L594 227z"/>
<path style="fill:#c7e3cf; stroke:none;" d="M303 228L304 229L303 228M498 228L499 229L498 228z"/>
<path style="fill:#a2d7b1; stroke:none;" d="M790.333 228.667C790.278 228.722 790.222 229.778 790.667 229.333C790.722 229.278 790.778 228.222 790.333 228.667z"/>
<path style="fill:#8ec69e; stroke:none;" d="M303 229L304 230L303 229z"/>
<path style="fill:#56aa6e; stroke:none;" d="M597 229L598 230L597 229M303 230L304 231L303 230z"/>
<path style="fill:#72b886; stroke:none;" d="M495 230L496 231L495 230z"/>
<path style="fill:#80bf92; stroke:none;" d="M598 230L599 231L598 230z"/>
<path style="fill:#8ec69e; stroke:none;" d="M494 231L495 232L494 231z"/>
<path style="fill:#aad4b6; stroke:none;" d="M599 231L600 232L599 231z"/>
<path style="fill:#c7e3cf; stroke:none;" d="M302 232L303 233L302 232z"/>
<path style="fill:#aad4b6; stroke:none;" d="M493 232L494 233L493 232z"/>
<path style="fill:#c7e3cf; stroke:none;" d="M600 232L601 233L600 232z"/>
<path style="fill:#a2d7b1; stroke:none;" d="M791.333 232.667C791.278 232.722 791.222 233.778 791.667 233.333C791.722 233.278 791.778 232.222 791.333 232.667z"/>
<path style="fill:#8ec69e; stroke:none;" d="M302 233L303 234L302 233z"/>
<path style="fill:#aad4b6; stroke:none;" d="M492 233L493 234L492 233z"/>
<path style="fill:#56aa6e; stroke:none;" d="M302 234L303 235L302 234z"/>
<path style="fill:#b7e0c2; stroke:none;" d="M604 236L605 237L604 236z"/>
<path style="fill:#addcb9; stroke:none;" d="M792 236L792 239C792.696 237.446 792.696 237.554 792 236z"/>
<path style="fill:#72b886; stroke:none;" d="M301.333 237.667C301.278 237.722 301.222 238.778 301.667 238.333C301.722 238.278 301.778 237.222 301.333 237.667z"/>
<path style="fill:#aad4b6; stroke:none;" d="M488 237L489 238L488 237M487 238L488 239L487 238z"/>
<path style="fill:#9ccdaa; stroke:none;" d="M486 239L487 240L486 239z"/>
<path style="fill:#72b886; stroke:none;" d="M485 240L486 241L485 240z"/>
<path style="fill:#c1e5cb; stroke:none;" d="M608 240L609 241L608 240z"/>
<path style="fill:#c7e3cf; stroke:none;" d="M300 241L301 242L300 241z"/>
<path style="fill:#a2d7b1; stroke:none;" d="M609 241L610 242L609 241z"/>
<path style="fill:#addcb9; stroke:none;" d="M793.333 241.667C793.278 241.722 793.222 242.778 793.667 242.333C793.722 242.278 793.778 241.222 793.333 241.667z"/>
<path style="fill:#64b17a; stroke:none;" d="M300.333 242.667C300.278 242.722 300.222 243.778 300.667 243.333C300.722 243.278 300.778 242.222 300.333 242.667z"/>
<path style="fill:#9ccdaa; stroke:none;" d="M482 244L483 245L482 244z"/>
<path style="fill:#56aa6e; stroke:none;" d="M481 245L482 246L481 245z"/>
<path style="fill:#b7e0c2; stroke:none;" d="M612 245L613 246L612 245z"/>
<path style="fill:#c7e3cf; stroke:none;" d="M299 246L300 247L299 246z"/>
<path style="fill:#addcb9; stroke:none;" d="M794 246L794 249C794.696 247.446 794.696 247.554 794 246z"/>
<path style="fill:#72b886; stroke:none;" d="M299 247L299 250C299.696 248.446 299.696 248.554 299 247z"/>
<path style="fill:#b8dcc2; stroke:none;" d="M480 247L481 248L480 247z"/>
<path style="fill:#64b17a; stroke:none;" d="M479 248L480 249L479 248z"/>
<path style="fill:#aad4b6; stroke:none;" d="M478 250L479 251L478 250z"/>
<path style="fill:#c7e3cf; stroke:none;" d="M298.333 251.667C298.278 251.722 298.222 252.778 298.667 252.333C298.722 252.278 298.778 251.222 298.333 251.667z"/>
<path style="fill:#56aa6e; stroke:none;" d="M477 251L478 252L477 251z"/>
<path style="fill:#addcb9; stroke:none;" d="M616 251L617 252L616 251z"/>
<path style="fill:#c1e5cb; stroke:none;" d="M795 251L795 254C795.696 252.446 795.696 252.554 795 251z"/>
<path style="fill:#c7e3cf; stroke:none;" d="M477 252L478 253L477 252z"/>
<path style="fill:#72b886; stroke:none;" d="M298 253L298 256C298.696 254.446 298.696 254.554 298 253M476 253L477 254L476 253z"/>
<path style="fill:#79c68e; stroke:none;" d="M795.333 254.667C795.278 254.722 795.222 255.778 795.667 255.333C795.722 255.278 795.778 254.222 795.333 254.667z"/>
<path style="fill:#80bf92; stroke:none;" d="M475 255L476 256L475 255z"/>
<path style="fill:#8ec69e; stroke:none;" d="M474 257L475 258L474 257z"/>
<path style="fill:#b8dcc2; stroke:none;" d="M297.333 258.667C297.278 258.722 297.222 259.778 297.667 259.333C297.722 259.278 297.778 258.222 297.333 258.667z"/>
<path style="fill:#3da45a; stroke:none;" d="M644.667 258.333C644.222 258.778 645.278 258.722 645.333 258.667C645.778 258.222 644.722 258.278 644.667 258.333z"/>
<path style="fill:#39a156; stroke:none;" d="M682 258C683.248 258.685 683.548 258.749 685 259C683.752 258.315 683.452 258.251 682 258z"/>
<path style="fill:#c1e5cb; stroke:none;" d="M796 258L796 261C796.696 259.446 796.696 259.554 796 258z"/>
<path style="fill:#72b886; stroke:none;" d="M473 259L474 260L473 259z"/>
<path style="fill:#80bf92; stroke:none;" d="M297.333 260.667C297.278 260.722 297.222 261.778 297.667 261.333C297.722 261.278 297.778 260.222 297.333 260.667z"/>
<path style="fill:#3da45a; stroke:none;" d="M655 260C657.613 261.098 660.165 260.993 663 261C660.387 259.902 657.836 260.007 655 260M666 260C668.613 261.098 671.164 260.993 674 261C671.387 259.902 668.836 260.007 666 260z"/>
<path style="fill:#56aa6e; stroke:none;" d="M472 261L473 262L472 261z"/>
<path style="fill:#c1e5cb; stroke:none;" d="M621 261L622 262L621 261z"/>
<path style="fill:#84ca96; stroke:none;" d="M796.333 261.667C796.278 261.722 796.222 262.778 796.667 262.333C796.722 262.278 796.778 261.222 796.333 261.667z"/>
<path style="fill:#47a362; stroke:none;" d="M297.333 262.667C297.278 262.722 297.222 263.778 297.667 263.333C297.722 263.278 297.778 262.222 297.333 262.667z"/>
<path style="fill:#b8dcc2; stroke:none;" d="M472 262L473 263L472 262z"/>
<path style="fill:#a2d7b1; stroke:none;" d="M622 263L623 264L622 263z"/>
<path style="fill:#80bf92; stroke:none;" d="M471 264L472 265L471 264z"/>
<path style="fill:#c7e3cf; stroke:none;" d="M296 266L296 269C296.696 267.446 296.696 267.554 296 266z"/>
<path style="fill:#d6ecdc; stroke:none;" d="M797.333 266.667C797.278 266.722 797.222 267.778 797.667 267.333C797.722 267.278 797.778 266.222 797.333 266.667z"/>
<path style="fill:#9ccdaa; stroke:none;" d="M470 267L471 268L470 267z"/>
<path style="fill:#addcb9; stroke:none;" d="M797 268L797 271C797.696 269.446 797.696 269.554 797 268z"/>
<path style="fill:#8ec69e; stroke:none;" d="M296 269L296 272C296.696 270.446 296.696 270.554 296 269z"/>
<path style="fill:#e1f2e6; stroke:none;" d="M624.333 269.667C624.278 269.722 624.222 270.778 624.667 270.333C624.722 270.278 624.778 269.222 624.333 269.667z"/>
<path style="fill:#80bf92; stroke:none;" d="M469 270L470 271L469 270z"/>
<path style="fill:#c7e3cf; stroke:none;" d="M469 271L470 272L469 271z"/>
<path style="fill:#84ca96; stroke:none;" d="M797 271L797 274C797.696 272.446 797.696 272.554 797 271z"/>
<path style="fill:#56aa6e; stroke:none;" d="M296.333 272.667C296.278 272.722 296.222 273.778 296.667 273.333C296.722 273.278 296.778 272.222 296.333 272.667z"/>
<path style="fill:#b7e0c2; stroke:none;" d="M625.333 272.667C625.278 272.722 625.222 273.778 625.667 273.333C625.722 273.278 625.778 272.222 625.333 272.667z"/>
<path style="fill:#56aa6e; stroke:none;" d="M468 273L469 274L468 273z"/>
<path style="fill:#8ec69e; stroke:none;" d="M468 274L469 275L468 274z"/>
<path style="fill:#2d994c; stroke:none;" d="M302 275C308.202 277.603 317.298 276 324 276C317.798 273.397 308.702 275 302 275z"/>
<path style="fill:#c7e3cf; stroke:none;" d="M468 275L469 276L468 275z"/>
<path style="fill:#d6ecdc; stroke:none;" d="M288 276C289.248 276.685 289.548 276.749 291 277C289.752 276.315 289.452 276.251 288 276z"/>
<path style="fill:#addcb9; stroke:none;" d="M291.667 276.333C291.222 276.778 292.278 276.722 292.333 276.667C292.778 276.222 291.722 276.278 291.667 276.333z"/>
<path style="fill:#84ca96; stroke:none;" d="M293 276C294.248 276.685 294.548 276.749 296 277C294.752 276.315 294.452 276.251 293 276z"/>
<path style="fill:#d6ecdc; stroke:none;" d="M279.667 277.333C279.222 277.778 280.278 277.722 280.333 277.667C280.778 277.222 279.722 277.278 279.667 277.333z"/>
<path style="fill:#addcb9; stroke:none;" d="M281.667 277.333C281.222 277.778 282.278 277.722 282.333 277.667C282.778 277.222 281.722 277.278 281.667 277.333z"/>
<path style="fill:#84ca96; stroke:none;" d="M283.667 277.333C283.222 277.778 284.278 277.722 284.333 277.667C284.778 277.222 283.722 277.278 283.667 277.333z"/>
<path style="fill:#39a156; stroke:none;" d="M341 277C342.506 277.683 343.315 277.826 345 278C343.494 277.317 342.685 277.174 341 277z"/>
<path style="fill:#c1e5cb; stroke:none;" d="M626.333 277.667C626.278 277.722 626.222 278.778 626.667 278.333C626.722 278.278 626.778 277.222 626.333 277.667z"/>
<path style="fill:#addcb9; stroke:none;" d="M273 278C274.248 278.685 274.548 278.749 276 279C274.752 278.315 274.452 278.251 273 278z"/>
<path style="fill:#8ec69e; stroke:none;" d="M467.333 278.667C467.278 278.722 467.222 279.778 467.667 279.333C467.722 279.278 467.778 278.222 467.333 278.667z"/>
<path style="fill:#d6ecdc; stroke:none;" d="M798 278L798 283C798.83 280.97 798.83 280.03 798 278z"/>
<path style="fill:#addcb9; stroke:none;" d="M267.667 279.333C267.222 279.778 268.278 279.722 268.333 279.667C268.778 279.222 267.722 279.278 267.667 279.333z"/>
<path style="fill:#84ca96; stroke:none;" d="M269.667 279.333C269.222 279.778 270.278 279.722 270.333 279.667C270.778 279.222 269.722 279.278 269.667 279.333z"/>
<path style="fill:#addcb9; stroke:none;" d="M262.667 280.333C262.222 280.778 263.278 280.722 263.333 280.667C263.778 280.222 262.722 280.278 262.667 280.333z"/>
<path style="fill:#e1f2e6; stroke:none;" d="M467.333 280.667C467.278 280.722 467.222 281.778 467.667 281.333C467.722 281.278 467.778 280.222 467.333 280.667z"/>
<path style="fill:#addcb9; stroke:none;" d="M257 281C258.248 281.685 258.548 281.749 260 282C258.752 281.315 258.452 281.251 257 281z"/>
<path style="fill:#39a156; stroke:none;" d="M366.667 281.333C366.222 281.778 367.278 281.722 367.333 281.667C367.778 281.222 366.722 281.278 366.667 281.333z"/>
<path style="fill:#a2d7b1; stroke:none;" d="M253 282C254.248 282.685 254.548 282.749 256 283C254.752 282.315 254.452 282.251 253 282z"/>
<path style="fill:#3da45a; stroke:none;" d="M370.667 282.333C370.222 282.778 371.278 282.722 371.333 282.667C371.778 282.222 370.722 282.278 370.667 282.333z"/>
<path style="fill:#addcb9; stroke:none;" d="M627 282L627 286C627.71 284.241 627.71 283.759 627 282z"/>
<path style="fill:#a2d7b1; stroke:none;" d="M249.667 283.333C249.222 283.778 250.278 283.722 250.333 283.667C250.778 283.222 249.722 283.278 249.667 283.333z"/>
<path style="fill:#3da45a; stroke:none;" d="M374.667 283.333C374.222 283.778 375.278 283.722 375.333 283.667C375.778 283.222 374.722 283.278 374.667 283.333z"/>
<path style="fill:#addcb9; stroke:none;" d="M798 283L798 303C800.087 298.027 800.087 287.973 798 283M245.667 284.333C245.222 284.778 246.278 284.722 246.333 284.667C246.778 284.222 245.722 284.278 245.667 284.333z"/>
<path style="fill:#64b17a; stroke:none;" d="M466.333 284.667C466.278 284.722 466.222 285.778 466.667 285.333C466.722 285.278 466.778 284.222 466.333 284.667z"/>
<path style="fill:#8ecf9f; stroke:none;" d="M242.667 285.333C242.222 285.778 243.278 285.722 243.333 285.667C243.778 285.222 242.722 285.278 242.667 285.333z"/>
<path style="fill:#79c68e; stroke:none;" d="M239.667 286.333C239.222 286.778 240.278 286.722 240.333 286.667C240.778 286.222 239.722 286.278 239.667 286.333z"/>
<path style="fill:#8ec69e; stroke:none;" d="M466 286L466 289C466.696 287.446 466.696 287.554 466 286z"/>
<path style="fill:#d6ecdc; stroke:none;" d="M627 286L627 292C627.951 289.715 627.951 288.285 627 286z"/>
<path style="fill:#a2d7b1; stroke:none;" d="M230 289L231 290L230 289z"/>
<path style="fill:#c7e3cf; stroke:none;" d="M466 289L466 297C467.161 294.23 467.161 291.77 466 289z"/>
<path style="fill:#c1e5cb; stroke:none;" d="M224 291L225 292L224 291z"/>
<path style="fill:#98d3a8; stroke:none;" d="M222 292L223 293L222 292z"/>
<path style="fill:#addcb9; stroke:none;" d="M219 293L220 294L219 293z"/>
<path style="fill:#d6ecdc; stroke:none;" d="M627 293L627 299C627.951 296.715 627.951 295.285 627 293z"/>
<path style="fill:#b7e0c2; stroke:none;" d="M214 295L215 296L214 295z"/>
<path style="fill:#a2d7b1; stroke:none;" d="M212 296L213 297L212 296z"/>
<path style="fill:#8ec69e; stroke:none;" d="M466 297L466 301C466.71 299.241 466.71 298.759 466 297z"/>
<path style="fill:#c1e5cb; stroke:none;" d="M207 298L208 299L207 298M205 299L206 300L205 299z"/>
<path style="fill:#addcb9; stroke:none;" d="M627.333 299.667C627.278 299.722 627.222 300.778 627.667 300.333C627.722 300.278 627.778 299.222 627.333 299.667M203 300L204 301L203 300M201 301L202 302L201 301z"/>
<path style="fill:#56aa6e; stroke:none;" d="M466.333 301.667C466.278 301.722 466.222 302.778 466.667 302.333C466.722 302.278 466.778 301.222 466.333 301.667z"/>
<path style="fill:#84ca96; stroke:none;" d="M627.333 301.667C627.278 301.722 627.222 302.778 627.667 302.333C627.722 302.278 627.778 301.222 627.333 301.667z"/>
<path style="fill:#addcb9; stroke:none;" d="M199 302L200 303L199 302M197 303L198 304L197 303z"/>
<path style="fill:#d6ecdc; stroke:none;" d="M798 303L798 308C798.83 305.97 798.83 305.03 798 303z"/>
<path style="fill:#c1e5cb; stroke:none;" d="M195 304L196 305L195 304M193 305L194 306L193 305z"/>
<path style="fill:#aad4b6; stroke:none;" d="M467 305L467 308C467.696 306.446 467.696 306.554 467 305z"/>
<path style="fill:#c1e5cb; stroke:none;" d="M626.333 305.667C626.278 305.722 626.222 306.778 626.667 306.333C626.722 306.278 626.778 305.222 626.333 305.667z"/>
<path style="fill:#84ca96; stroke:none;" d="M626.333 307.667C626.278 307.722 626.222 308.778 626.667 308.333C626.722 308.278 626.778 307.222 626.333 307.667z"/>
<path style="fill:#a2d7b1; stroke:none;" d="M188 308L189 309L188 308z"/>
<path style="fill:#56aa6e; stroke:none;" d="M467 308L468 309L467 308z"/>
<path style="fill:#b7e0c2; stroke:none;" d="M186 309L187 310L186 309z"/>
<path style="fill:#98d3a8; stroke:none;" d="M183 311L184 312L183 311z"/>
<path style="fill:#72b886; stroke:none;" d="M468.333 311.667C468.278 311.722 468.222 312.778 468.667 312.333C468.722 312.278 468.778 311.222 468.333 311.667z"/>
<path style="fill:#8ecf9f; stroke:none;" d="M625.333 311.667C625.277 311.722 625.222 312.778 625.667 312.333C625.722 312.278 625.778 311.222 625.333 311.667z"/>
<path style="fill:#b7e0c2; stroke:none;" d="M181 312L182 313L181 312z"/>
<path style="fill:#84ca96; stroke:none;" d="M797 312L797 315C797.696 313.446 797.696 313.554 797 312z"/>
<path style="fill:#a2d7b1; stroke:none;" d="M178 314L179 315L178 314z"/>
<path style="fill:#9ccdaa; stroke:none;" d="M469 315L470 316L469 315z"/>
<path style="fill:#79c68e; stroke:none;" d="M624.333 315.667C624.278 315.722 624.222 316.778 624.667 316.333C624.722 316.278 624.778 315.222 624.333 315.667z"/>
<path style="fill:#addcb9; stroke:none;" d="M797.333 315.667C797.277 315.722 797.222 316.778 797.667 316.333C797.722 316.278 797.778 315.222 797.333 315.667z"/>
<path style="fill:#d6ecdc; stroke:none;" d="M797 317L797 320C797.696 318.446 797.696 318.554 797 317z"/>
<path style="fill:#9ccdaa; stroke:none;" d="M470 318L471 319L470 318z"/>
<path style="fill:#b7e0c2; stroke:none;" d="M623 318L624 319L623 318z"/>
<path style="fill:#a2d7b1; stroke:none;" d="M169 320L170 321L169 320z"/>
<path style="fill:#8ec69e; stroke:none;" d="M471 321L472 322L471 321z"/>
<path style="fill:#addcb9; stroke:none;" d="M166 322L167 323L166 322z"/>
<path style="fill:#84ca96; stroke:none;" d="M796.333 322.667C796.278 322.722 796.222 323.778 796.667 323.333C796.722 323.278 796.778 322.222 796.333 322.667z"/>
<path style="fill:#b8dcc2; stroke:none;" d="M472 323L473 324L472 323z"/>
<path style="fill:#56aa6e; stroke:none;" d="M472 324L473 325L472 324z"/>
<path style="fill:#addcb9; stroke:none;" d="M796.333 324.667C796.278 324.722 796.222 325.778 796.667 325.333C796.722 325.278 796.778 324.222 796.333 324.667z"/>
<path style="fill:#a2d7b1; stroke:none;" d="M162 325L163 326L162 325z"/>
<path style="fill:#72b886; stroke:none;" d="M473 326L474 327L473 326z"/>
<path style="fill:#98d3a8; stroke:none;" d="M620 326L621 327L620 326z"/>
<path style="fill:#d6ecdc; stroke:none;" d="M796.333 326.667C796.278 326.722 796.222 327.778 796.667 327.333C796.722 327.278 796.778 326.222 796.333 326.667z"/>
<path style="fill:#addcb9; stroke:none;" d="M158 328L159 329L158 328z"/>
<path style="fill:#72b886; stroke:none;" d="M474 328L475 329L474 328z"/>
<path style="fill:#98d3a8; stroke:none;" d="M619 328L620 329L619 328z"/>
<path style="fill:#72b886; stroke:none;" d="M475 330L476 331L475 330z"/>
<path style="fill:#98d3a8; stroke:none;" d="M618 330L619 331L618 330M795 330L795 333C795.696 331.446 795.696 331.554 795 330z"/>
<path style="fill:#addcb9; stroke:none;" d="M153 332L154 333L153 332z"/>
<path style="fill:#56aa6e; stroke:none;" d="M476 332L477 333L476 332z"/>
<path style="fill:#98d3a8; stroke:none;" d="M152 333L153 334L152 333z"/>
<path style="fill:#b8dcc2; stroke:none;" d="M477 333L478 334L477 333z"/>
<path style="fill:#80bf92; stroke:none;" d="M478 335L479 336L478 335z"/>
<path style="fill:#addcb9; stroke:none;" d="M615 335L616 336L615 335z"/>
<path style="fill:#98d3a8; stroke:none;" d="M794.333 336.667C794.278 336.722 794.222 337.778 794.667 337.333C794.722 337.278 794.778 336.222 794.333 336.667z"/>
<path style="fill:#c1e5cb; stroke:none;" d="M147 337L148 338L147 337z"/>
<path style="fill:#a2d7b1; stroke:none;" d="M146 338L147 339L146 338z"/>
<path style="fill:#80bf92; stroke:none;" d="M480 338L481 339L480 338z"/>
<path style="fill:#b7e0c2; stroke:none;" d="M613 338L614 339L613 338z"/>
<path style="fill:#d6ecdc; stroke:none;" d="M794.333 338.667C794.278 338.722 794.222 339.778 794.667 339.333C794.722 339.278 794.778 338.222 794.333 338.667z"/>
<path style="fill:#98d3a8; stroke:none;" d="M145 339L146 340L145 339z"/>
<path style="fill:#c7e3cf; stroke:none;" d="M481 339L482 340L481 339z"/>
<path style="fill:#98d3a8; stroke:none;" d="M611 341L612 342L611 341z"/>
<path style="fill:#c1e5cb; stroke:none;" d="M610 342L611 343L610 342z"/>
<path style="fill:#addcb9; stroke:none;" d="M793.333 342.667C793.278 342.722 793.222 343.778 793.667 343.333C793.722 343.278 793.778 342.222 793.333 342.667z"/>
<path style="fill:#98d3a8; stroke:none;" d="M606 347L607 348L606 347z"/>
<path style="fill:#c1e5cb; stroke:none;" d="M792.333 347.667C792.278 347.722 792.222 348.778 792.667 348.333C792.722 348.278 792.778 347.222 792.333 347.667z"/>
<path style="fill:#98d3a8; stroke:none;" d="M605 348L606 349L605 348M604 349L605 350L604 349M603 350L604 351L603 350M602 351L603 352L602 351z"/>
<path style="fill:#b7e0c2; stroke:none;" d="M791.333 351.667C791.278 351.722 791.222 352.778 791.667 352.333C791.722 352.278 791.778 351.222 791.333 351.667z"/>
<path style="fill:#98d3a8; stroke:none;" d="M601 352L602 353L601 352z"/>
<path style="fill:#b7e0c2; stroke:none;" d="M790.333 355.667C790.278 355.722 790.222 356.778 790.667 356.333C790.722 356.278 790.778 355.222 790.333 355.667z"/>
<path style="fill:#addcb9; stroke:none;" d="M596 356L597 357L596 356z"/>
<path style="fill:#98d3a8; stroke:none;" d="M125 359L126 360L125 359z"/>
<path style="fill:#a2d7b1; stroke:none;" d="M592 359L593 360L592 359z"/>
<path style="fill:#c1e5cb; stroke:none;" d="M789.333 359.667C789.278 359.722 789.222 360.778 789.667 360.333C789.722 360.278 789.778 359.222 789.333 359.667z"/>
<path style="fill:#98d3a8; stroke:none;" d="M124 360L125 361L124 360z"/>
<path style="fill:#c1e5cb; stroke:none;" d="M123 361L124 362L123 361M122 362L123 363L122 362z"/>
<path style="fill:#addcb9; stroke:none;" d="M506 362L507 363L506 362M587 362L588 363L587 362z"/>
<path style="fill:#c1e5cb; stroke:none;" d="M508 363L509 364L508 363M585 363L586 364L585 363z"/>
<path style="fill:#a2d7b1; stroke:none;" d="M788 363L789 364L788 363z"/>
<path style="fill:#c1e5cb; stroke:none;" d="M581 365L582 366L581 365M514 366L515 367L514 366z"/>
<path style="fill:#b7e0c2; stroke:none;" d="M579 366L580 367L579 366z"/>
<path style="fill:#cce9d4; stroke:none;" d="M787.333 366.667C787.277 366.722 787.222 367.778 787.667 367.333C787.722 367.278 787.778 366.222 787.333 366.667z"/>
<path style="fill:#a2d7b1; stroke:none;" d="M118 367L119 368L118 367z"/>
<path style="fill:#addcb9; stroke:none;" d="M516 367L517 368L516 367z"/>
<path style="fill:#c1e5cb; stroke:none;" d="M117 368L118 369L117 368z"/>
<path style="fill:#b7e0c2; stroke:none;" d="M574 368L575 369L574 368z"/>
<path style="fill:#8ecf9f; stroke:none;" d="M571.667 369.333C571.222 369.778 572.278 369.722 572.333 369.667C572.778 369.222 571.722 369.278 571.667 369.333z"/>
<path style="fill:#e1f2e6; stroke:none;" d="M525.667 370.333C525.222 370.778 526.278 370.722 526.333 370.667C526.778 370.222 525.722 370.278 525.667 370.333z"/>
<path style="fill:#79c68e; stroke:none;" d="M568.667 370.333C568.222 370.778 569.278 370.722 569.333 370.667C569.778 370.222 568.722 370.278 568.667 370.333z"/>
<path style="fill:#addcb9; stroke:none;" d="M528 371C529.248 371.685 529.548 371.749 531 372C529.752 371.315 529.451 371.251 528 371M563.667 371.333C563.222 371.778 564.278 371.722 564.333 371.667C564.778 371.222 563.722 371.278 563.667 371.333z"/>
<path style="fill:#a2d7b1; stroke:none;" d="M114 372L115 373L114 372z"/>
<path style="fill:#c1e5cb; stroke:none;" d="M534 372C535.248 372.685 535.548 372.749 537 373C535.752 372.315 535.452 372.251 534 372z"/>
<path style="fill:#d6ecdc; stroke:none;" d="M556.667 372.333C556.222 372.778 557.278 372.722 557.333 372.667C557.778 372.222 556.722 372.278 556.667 372.333z"/>
<path style="fill:#a2d7b1; stroke:none;" d="M558 372C559.248 372.685 559.548 372.749 561 373C559.752 372.315 559.452 372.251 558 372z"/>
<path style="fill:#84ca96; stroke:none;" d="M540 373C541.506 373.683 542.315 373.826 544 374C542.494 373.317 541.685 373.174 540 373z"/>
<path style="fill:#addcb9; stroke:none;" d="M544 373C545.769 373.779 547.036 373.912 549 374C547.231 373.221 545.964 373.088 544 373z"/>
<path style="fill:#84ca96; stroke:none;" d="M549 373C550.769 373.779 552.036 373.912 554 374C552.231 373.221 550.964 373.088 549 373z"/>
<path style="fill:#98d3a8; stroke:none;" d="M111 376L112 377L111 376z"/>
<path style="fill:#c1e5cb; stroke:none;" d="M784 376L785 377L784 376M110 377L111 378L110 377z"/>
<path style="fill:#cce9d4; stroke:none;" d="M783.333 378.667C783.278 378.722 783.222 379.778 783.667 379.333C783.722 379.278 783.778 378.222 783.333 378.667z"/>
<path style="fill:#a2d7b1; stroke:none;" d="M108 380L109 381L108 380M782 381L783 382L782 381z"/>
<path style="fill:#98d3a8; stroke:none;" d="M780 386L781 387L780 386z"/>
<path style="fill:#b7e0c2; stroke:none;" d="M103 387L104 388L103 387z"/>
<path style="fill:#c1e5cb; stroke:none;" d="M779 389L780 390L779 389M101 390L102 391L101 390z"/>
<path style="fill:#addcb9; stroke:none;" d="M778 391L779 392L778 391z"/>
<path style="fill:#98d3a8; stroke:none;" d="M777 393L778 394L777 393z"/>
<path style="fill:#addcb9; stroke:none;" d="M98 395L99 396L98 395z"/>
<path style="fill:#c1e5cb; stroke:none;" d="M776 396L777 397L776 396z"/>
<path style="fill:#addcb9; stroke:none;" d="M95 400L96 401L95 400M774 400L775 401L774 400M773 402L774 403L773 402M772 404L773 405L772 404z"/>
<path style="fill:#c1e5cb; stroke:none;" d="M92 405L93 406L92 405z"/>
<path style="fill:#addcb9; stroke:none;" d="M771 406L772 407L771 406M91 407L92 408L91 407M770 408L771 409L770 408M90 409L91 410L90 409M769 410L770 411L769 410z"/>
<path style="fill:#98d3a8; stroke:none;" d="M89 411L90 412L89 411z"/>
<path style="fill:#c1e5cb; stroke:none;" d="M768 412L769 413L768 412z"/>
<path style="fill:#98d3a8; stroke:none;" d="M88 413L89 414L88 413M87 415L88 416L87 415M86 417L87 418L86 417M765 417L766 418L765 417z"/>
<path style="fill:#addcb9; stroke:none;" d="M85 419L86 420L85 419M764 419L765 420L764 419M84 421L85 422L84 421z"/>
<path style="fill:#c1e5cb; stroke:none;" d="M83 423L84 424L83 423z"/>
<path style="fill:#addcb9; stroke:none;" d="M761 424L762 425L761 424z"/>
<path style="fill:#a2d7b1; stroke:none;" d="M759 427L760 428L759 427z"/>
<path style="fill:#c1e5cb; stroke:none;" d="M80 430L81 431L80 430z"/>
<path style="fill:#98d3a8; stroke:none;" d="M79 433L80 434L79 433z"/>
<path style="fill:#b7e0c2; stroke:none;" d="M78 435L79 436L78 435z"/>
<path style="fill:#a2d7b1; stroke:none;" d="M753 436L754 437L753 436z"/>
<path style="fill:#addcb9; stroke:none;" d="M751 439L752 440L751 439z"/>
<path style="fill:#c1e5cb; stroke:none;" d="M75 443L76 444L75 443z"/>
<path style="fill:#a2d7b1; stroke:none;" d="M748 443L749 444L748 443z"/>
<path style="fill:#b7e0c2; stroke:none;" d="M74 446L75 447L74 446z"/>
<path style="fill:#84ca96; stroke:none;" d="M306 446C307.248 446.685 307.548 446.749 309 447C307.752 446.315 307.452 446.251 306 446z"/>
<path style="fill:#addcb9; stroke:none;" d="M309 446C311.613 447.098 314.164 446.993 317 447C314.387 445.902 311.836 446.007 309 446z"/>
<path style="fill:#84ca96; stroke:none;" d="M317 446C318.248 446.685 318.548 446.749 320 447C318.752 446.315 318.452 446.251 317 446z"/>
<path style="fill:#b7e0c2; stroke:none;" d="M300.667 447.333C300.222 447.778 301.278 447.722 301.333 447.667C301.778 447.222 300.722 447.278 300.667 447.333z"/>
<path style="fill:#ffffff; stroke:none;" d="M302 447.439C289.156 449.445 276.7 453.928 266 461.44C236.996 481.802 225.026 519.474 236.09 553C240.447 566.205 248.313 577.096 257.91 586.961C266.761 596.057 277.671 602.411 290 605.711C300.309 608.469 312.434 609.085 323 607.572C335.291 605.811 346.606 601.755 357 594.921C405.185 563.241 402.553 488.033 354 458.065C345.998 453.126 337.225 449.983 328 448.261C319.697 446.711 310.386 446.129 302 447.439z"/>
<path style="fill:#cce9d4; stroke:none;" d="M323.667 447.333C323.222 447.778 324.278 447.722 324.333 447.667C324.778 447.222 323.722 447.278 323.667 447.333z"/>
<path style="fill:#8ecf9f; stroke:none;" d="M325 447C326.248 447.685 326.549 447.749 328 448C326.752 447.315 326.452 447.251 325 447z"/>
<path style="fill:#addcb9; stroke:none;" d="M745 447L746 448L745 447z"/>
<path style="fill:#cce9d4; stroke:none;" d="M295.667 448.333C295.222 448.778 296.278 448.722 296.333 448.667C296.778 448.222 295.722 448.278 295.667 448.333z"/>
<path style="fill:#addcb9; stroke:none;" d="M329 448C330.248 448.685 330.548 448.749 332 449C330.752 448.315 330.452 448.251 329 448z"/>
<path style="fill:#84ca96; stroke:none;" d="M73.3333 449.667C73.2777 449.722 73.2223 450.778 73.6667 450.333C73.7221 450.278 73.7778 449.222 73.3333 449.667z"/>
<path style="fill:#cce9d4; stroke:none;" d="M291.667 449.333C291.222 449.778 292.278 449.722 292.333 449.667C292.778 449.222 291.722 449.278 291.667 449.333z"/>
<path style="fill:#addcb9; stroke:none;" d="M333.667 449.333C333.222 449.778 334.278 449.722 334.333 449.667C334.778 449.222 333.722 449.278 333.667 449.333z"/>
<path style="fill:#b7e0c2; stroke:none;" d="M337 450L338 451L337 450z"/>
<path style="fill:#addcb9; stroke:none;" d="M340 451L341 452L340 451z"/>
<path style="fill:#8ecf9f; stroke:none;" d="M72.3333 452.667C72.2777 452.722 72.2222 453.778 72.6667 453.333C72.7222 453.278 72.7778 452.222 72.3333 452.667z"/>
<path style="fill:#98d3a8; stroke:none;" d="M282 452L283 453L282 452z"/>
<path style="fill:#addcb9; stroke:none;" d="M741 452L742 453L741 452M280 453L281 454L280 453z"/>
<path style="fill:#98d3a8; stroke:none;" d="M740 453L741 454L740 453z"/>
<path style="fill:#c1e5cb; stroke:none;" d="M278 454L279 455L278 454z"/>
<path style="fill:#addcb9; stroke:none;" d="M347 454L348 455L347 454z"/>
<path style="fill:#a2d7b1; stroke:none;" d="M71.3333 455.667C71.2777 455.722 71.2223 456.778 71.6667 456.333C71.7221 456.278 71.7778 455.222 71.3333 455.667z"/>
<path style="fill:#c1e5cb; stroke:none;" d="M276 455L277 456L276 455z"/>
<path style="fill:#addcb9; stroke:none;" d="M349 455L350 456L349 455z"/>
<path style="fill:#c1e5cb; stroke:none;" d="M274 456L275 457L274 456z"/>
<path style="fill:#98d3a8; stroke:none;" d="M351 456L352 457L351 456z"/>
<path style="fill:#addcb9; stroke:none;" d="M272 457L273 458L272 457z"/>
<path style="fill:#b7e0c2; stroke:none;" d="M354 458L355 459L354 458z"/>
<path style="fill:#c1e5cb; stroke:none;" d="M736 458L737 459L736 458z"/>
<path style="fill:#8ecf9f; stroke:none;" d="M70.3333 459.667C70.2777 459.722 70.2222 460.778 70.6667 460.333C70.7221 460.278 70.7778 459.222 70.3333 459.667z"/>
<path style="fill:#addcb9; stroke:none;" d="M735 459L736 460L735 459z"/>
<path style="fill:#c1e5cb; stroke:none;" d="M357 460L358 461L357 460z"/>
<path style="fill:#98d3a8; stroke:none;" d="M734 460L735 461L734 460M733 461L734 462L733 461z"/>
<path style="fill:#addcb9; stroke:none;" d="M69.3333 462.667C69.2777 462.722 69.2223 463.778 69.6667 463.333C69.7222 463.278 69.7778 462.222 69.3333 462.667M360 462L361 463L360 462M263 463L264 464L263 463M68.3333 466.667C68.2777 466.722 68.2222 467.778 68.6667 467.333C68.7222 467.278 68.7778 466.222 68.3333 466.667z"/>
<path style="fill:#98d3a8; stroke:none;" d="M258 467L259 468L258 467M257 468L258 469L257 468z"/>
<path style="fill:#addcb9; stroke:none;" d="M256 469L257 470L256 469z"/>
<path style="fill:#b7e0c2; stroke:none;" d="M67.3333 470.667C67.2777 470.722 67.2222 471.778 67.6667 471.333C67.7222 471.278 67.7778 470.222 67.3333 470.667z"/>
<path style="fill:#c1e5cb; stroke:none;" d="M255 470L256 471L255 470M254 471L255 472L254 471z"/>
<path style="fill:#98d3a8; stroke:none;" d="M253 472L254 473L253 472M252 473L253 474L252 473z"/>
<path style="fill:#addcb9; stroke:none;" d="M66.3333 475.667C66.2777 475.722 66.2222 476.778 66.6667 476.333C66.7222 476.278 66.7778 475.222 66.3333 475.667z"/>
<path style="fill:#c1e5cb; stroke:none;" d="M248 478L249 479L248 478z"/>
<path style="fill:#b3debe; stroke:none;" d="M375 478L376 479L375 478z"/>
<path style="fill:#98d3a8; stroke:none;" d="M247 479L248 480L247 479z"/>
<path style="fill:#34a853; stroke:none;" d="M377 479C378.903 484.02 382.377 488.155 384.68 493C390.434 505.106 393.553 518.586 392.961 532C391.018 575.967 349.478 611.958 306 608.911C289.951 607.786 278.395 599.448 264 594C274.021 609.165 284.95 624.204 286.829 643C291.565 690.357 250.564 728.787 205 731.911C189.099 733 173.23 729.306 159 722.191C153.073 719.228 148.001 714.671 142 712C147.395 721.389 160.27 728.694 169 734.856C198.17 755.446 232.831 769.255 268 775.08C350.388 788.727 437.265 762.884 494.91 701C514.162 680.333 529.937 656.672 541.691 631C554.217 603.644 560.643 573.86 563 544C551.462 544 539.487 544.923 528 543.83C491.595 540.366 457.215 530.156 425 512.691C413.697 506.564 403.167 499.187 393 491.349C387.751 487.302 382.997 481.796 377 479z"/>
<path style="fill:#98d3a8; stroke:none;" d="M715 479L716 480L715 479z"/>
<path style="fill:#addcb9; stroke:none;" d="M65.3333 480.667C65.2777 480.722 65.2223 481.778 65.6667 481.333C65.7222 481.278 65.7778 480.222 65.3333 480.667z"/>
<path style="fill:#98d3a8; stroke:none;" d="M714 480L715 481L714 480z"/>
<path style="fill:#b7e0c2; stroke:none;" d="M713 481L714 482L713 481z"/>
<path style="fill:#79c68e; stroke:none;" d="M65.3333 482.667C65.2777 482.722 65.2223 483.778 65.6667 483.333C65.7222 483.278 65.7778 482.222 65.3333 482.667z"/>
<path style="fill:#addcb9; stroke:none;" d="M245 482L246 483L245 482z"/>
<path style="fill:#a6d9b3; stroke:none;" d="M378 482L379 483L378 482z"/>
<path style="fill:#c1e5cb; stroke:none;" d="M712 482L713 483L712 482M64 485L64 488C64.6961 486.446 64.6961 486.554 64 485z"/>
<path style="fill:#addcb9; stroke:none;" d="M243 485L244 486L243 485z"/>
<path style="fill:#98d3a8; stroke:none;" d="M380 485L381 486L380 485M707 486L708 487L707 486z"/>
<path style="fill:#b7e0c2; stroke:none;" d="M706 487L707 488L706 487z"/>
<path style="fill:#79c68e; stroke:none;" d="M64.3333 488.667C64.2777 488.722 64.2223 489.778 64.6667 489.333C64.7222 489.278 64.7778 488.222 64.3333 488.667z"/>
<path style="fill:#73c388; stroke:none;" d="M382 488L383 489L382 488z"/>
<path style="fill:#98d3a8; stroke:none;" d="M240 490L241 491L240 490z"/>
<path style="fill:#80c893; stroke:none;" d="M383 490L384 491L383 490z"/>
<path style="fill:#98d3a8; stroke:none;" d="M702 490L703 491L702 490z"/>
<path style="fill:#b7e0c2; stroke:none;" d="M701 491L702 492L701 491M63 492L63 495C63.6961 493.446 63.6961 493.554 63 492z"/>
<path style="fill:#98d3a8; stroke:none;" d="M239 492L240 493L239 492M384 492L385 493L384 492z"/>
<path style="fill:#80c893; stroke:none;" d="M385 494L386 495L385 494z"/>
<path style="fill:#addcb9; stroke:none;" d="M697 494L698 495L697 494z"/>
<path style="fill:#84ca96; stroke:none;" d="M63.3333 495.667C63.2778 495.722 63.2223 496.778 63.6667 496.333C63.7223 496.278 63.7778 495.222 63.3333 495.667z"/>
<path style="fill:#bfe4c9; stroke:none;" d="M386 497L387 498L386 497z"/>
<path style="fill:#b7e0c2; stroke:none;" d="M693 497L694 498L693 497z"/>
<path style="fill:#cce9d4; stroke:none;" d="M236.333 499.667C236.278 499.722 236.222 500.778 236.667 500.333C236.722 500.278 236.778 499.222 236.333 499.667z"/>
<path style="fill:#98d3a8; stroke:none;" d="M387 499L388 500L387 499z"/>
<path style="fill:#a2d7b1; stroke:none;" d="M690 499L691 500L690 499z"/>
<path style="fill:#d6ecdc; stroke:none;" d="M62.3333 500.667C62.2778 500.722 62.2222 501.778 62.6667 501.333C62.7222 501.278 62.7778 500.222 62.3333 500.667z"/>
<path style="fill:#a2d7b1; stroke:none;" d="M687 501L688 502L687 501z"/>
<path style="fill:#addcb9; stroke:none;" d="M62.3333 502.667C62.2778 502.722 62.2223 503.778 62.6667 503.333C62.7222 503.278 62.7779 502.222 62.3333 502.667z"/>
<path style="fill:#cce9d4; stroke:none;" d="M235.333 502.667C235.278 502.722 235.222 503.778 235.667 503.333C235.722 503.278 235.778 502.222 235.333 502.667z"/>
<path style="fill:#a6d9b3; stroke:none;" d="M388 502L389 503L388 502z"/>
<path style="fill:#a2d7b1; stroke:none;" d="M684 503L685 504L684 503z"/>
<path style="fill:#84ca96; stroke:none;" d="M62 504L62 507C62.6961 505.446 62.6961 505.554 62 504z"/>
<path style="fill:#b7e0c2; stroke:none;" d="M234.333 505.667C234.278 505.722 234.222 506.778 234.667 506.333C234.722 506.278 234.778 505.222 234.333 505.667z"/>
<path style="fill:#98d3a8; stroke:none;" d="M389 505L390 506L389 505z"/>
<path style="fill:#addcb9; stroke:none;" d="M681 505L682 506L681 505z"/>
<path style="fill:#c1e5cb; stroke:none;" d="M678 507L679 508L678 507z"/>
<path style="fill:#a6d9b3; stroke:none;" d="M390 508L390 511C390.696 509.446 390.696 509.554 390 508z"/>
<path style="fill:#98d3a8; stroke:none;" d="M676 508L677 509L676 508z"/>
<path style="fill:#addcb9; stroke:none;" d="M233.333 509.667C233.278 509.722 233.222 510.778 233.667 510.333C233.722 510.278 233.778 509.222 233.333 509.667z"/>
<path style="fill:#c1e5cb; stroke:none;" d="M673 510L674 511L673 510z"/>
<path style="fill:#d6ecdc; stroke:none;" d="M61 511L61 516C61.8299 513.969 61.8299 513.03 61 511z"/>
<path style="fill:#addcb9; stroke:none;" d="M671 511L672 512L671 511z"/>
<path style="fill:#98d3a8; stroke:none;" d="M669 512L670 513L669 512M391.333 513.667C391.278 513.722 391.222 514.778 391.667 514.333C391.722 514.278 391.778 513.222 391.333 513.667z"/>
<path style="fill:#addcb9; stroke:none;" d="M232.333 515.667C232.278 515.722 232.222 516.778 232.667 516.333C232.722 516.278 232.778 515.222 232.333 515.667z"/>
<path style="fill:#d9efdf; stroke:none;" d="M391.333 515.667C391.278 515.722 391.222 516.778 391.667 516.333C391.722 516.278 391.778 515.222 391.333 515.667z"/>
<path style="fill:#c1e5cb; stroke:none;" d="M664 515L665 516L664 515z"/>
<path style="fill:#addcb9; stroke:none;" d="M61 516L61 525C62.2561 522.006 62.2561 518.994 61 516z"/>
<path style="fill:#c1e5cb; stroke:none;" d="M662 516L663 517L662 516z"/>
<path style="fill:#d6ecdc; stroke:none;" d="M232.333 517.667C232.278 517.722 232.222 518.778 232.667 518.333C232.722 518.278 232.778 517.222 232.333 517.667z"/>
<path style="fill:#b7e0c2; stroke:none;" d="M660 517L661 518L660 517M658 518L659 519L658 518z"/>
<path style="fill:#65bd7c; stroke:none;" d="M392.333 519.667C392.278 519.722 392.222 520.778 392.667 520.333C392.722 520.278 392.778 519.222 392.333 519.667z"/>
<path style="fill:#c1e5cb; stroke:none;" d="M656 519L657 520L656 519M654 520L655 521L654 520z"/>
<path style="fill:#98d3a8; stroke:none;" d="M392 521L392 526C392.83 523.97 392.83 523.03 392 521M649 522L650 523L649 522z"/>
<path style="fill:#84ca96; stroke:none;" d="M231 523L231 531C232.161 528.23 232.161 525.77 231 523z"/>
<path style="fill:#a2d7b1; stroke:none;" d="M647 523L648 524L647 523z"/>
<path style="fill:#84ca96; stroke:none;" d="M61 525L61 529C61.7102 527.24 61.7102 526.76 61 525z"/>
<path style="fill:#98d3a8; stroke:none;" d="M642 525L643 526L642 525z"/>
<path style="fill:#cce9d4; stroke:none;" d="M392 526L392 530C392.71 528.24 392.71 527.76 392 526z"/>
<path style="fill:#b7e0c2; stroke:none;" d="M640 526L641 527L640 526z"/>
<path style="fill:#98d3a8; stroke:none;" d="M637 527L638 528L637 527z"/>
<path style="fill:#addcb9; stroke:none;" d="M61 529L61 539C62.3457 535.793 62.3457 532.207 61 529M632 529L633 530L632 529z"/>
<path style="fill:#98d3a8; stroke:none;" d="M392 530L392 534C392.71 532.24 392.71 531.76 392 530z"/>
<path style="fill:#a2d7b1; stroke:none;" d="M629 530L630 531L629 530M626 531L627 532L626 531M623 532L624 533L623 532z"/>
<path style="fill:#e1f2e6; stroke:none;" d="M620.667 533.333C620.222 533.778 621.278 533.722 621.333 533.667C621.778 533.222 620.722 533.278 620.667 533.333z"/>
<path style="fill:#d6ecdc; stroke:none;" d="M232 534L232 537C232.696 535.446 232.696 535.554 232 534z"/>
<path style="fill:#65bd7c; stroke:none;" d="M392 534L392 537C392.696 535.446 392.696 535.554 392 534z"/>
<path style="fill:#c1e5cb; stroke:none;" d="M616.667 534.333C616.222 534.778 617.278 534.722 617.333 534.667C617.778 534.222 616.722 534.278 616.667 534.333z"/>
<path style="fill:#e1f2e6; stroke:none;" d="M613.667 535.333C613.222 535.778 614.278 535.722 614.333 535.667C614.778 535.222 613.722 535.278 613.667 535.333z"/>
<path style="fill:#cce9d4; stroke:none;" d="M609.667 536.333C609.222 536.778 610.278 536.722 610.333 536.667C610.778 536.222 609.722 536.278 609.667 536.333z"/>
<path style="fill:#98d3a8; stroke:none;" d="M232 537L232 540C232.696 538.446 232.696 538.554 232 537z"/>
<path style="fill:#cce9d4; stroke:none;" d="M605.667 537.333C605.222 537.778 606.278 537.722 606.333 537.667C606.778 537.222 605.722 537.278 605.667 537.333z"/>
<path style="fill:#b7e0c2; stroke:none;" d="M600 538C601.248 538.685 601.548 538.749 603 539C601.752 538.315 601.452 538.251 600 538z"/>
<path style="fill:#d6ecdc; stroke:none;" d="M61 539L61 543C61.7102 541.24 61.7102 540.76 61 539z"/>
<path style="fill:#b3debe; stroke:none;" d="M391 539L391 542C391.696 540.446 391.696 540.554 391 539z"/>
<path style="fill:#addcb9; stroke:none;" d="M595.667 539.333C595.222 539.778 596.278 539.722 596.333 539.667C596.778 539.222 595.722 539.278 595.667 539.333z"/>
<path style="fill:#98d3a8; stroke:none;" d="M589 540C590.248 540.685 590.548 540.749 592 541C590.752 540.315 590.452 540.251 589 540z"/>
<path style="fill:#a2d7b1; stroke:none;" d="M583 541C584.248 541.685 584.548 541.749 586 542C584.752 541.315 584.452 541.251 583 541z"/>
<path style="fill:#addcb9; stroke:none;" d="M233.333 542.667C233.278 542.722 233.222 543.778 233.667 543.333C233.722 543.278 233.778 542.222 233.333 542.667z"/>
<path style="fill:#8ecf9f; stroke:none;" d="M575.667 542.333C575.222 542.778 576.278 542.722 576.333 542.667C576.778 542.222 575.722 542.278 575.667 542.333z"/>
<path style="fill:#b7e0c2; stroke:none;" d="M577.667 542.333C577.222 542.778 578.278 542.722 578.333 542.667C578.778 542.222 577.722 542.278 577.667 542.333z"/>
<path style="fill:#e1f2e6; stroke:none;" d="M579.667 542.333C579.222 542.778 580.278 542.722 580.333 542.667C580.778 542.222 579.722 542.278 579.667 542.333z"/>
<path style="fill:#84ca96; stroke:none;" d="M563 543C564.506 543.683 565.315 543.826 567 544C565.494 543.317 564.685 543.174 563 543z"/>
<path style="fill:#addcb9; stroke:none;" d="M567.667 543.333C567.222 543.778 568.278 543.722 568.333 543.667C568.778 543.222 567.722 543.278 567.667 543.333z"/>
<path style="fill:#d6ecdc; stroke:none;" d="M569 543C570.248 543.685 570.548 543.749 572 544C570.752 543.315 570.451 543.251 569 543z"/>
<path style="fill:#80c893; stroke:none;" d="M390.333 545.667C390.278 545.722 390.222 546.778 390.667 546.333C390.722 546.278 390.778 545.222 390.333 545.667z"/>
<path style="fill:#addcb9; stroke:none;" d="M234.333 546.667C234.278 546.722 234.222 547.778 234.667 547.333C234.722 547.278 234.778 546.222 234.333 546.667z"/>
<path style="fill:#84ca96; stroke:none;" d="M62 547L62 550C62.6961 548.446 62.6961 548.554 62 547z"/>
<path style="fill:#65bd7c; stroke:none;" d="M562 548L562 551C562.696 549.446 562.696 549.554 562 548z"/>
<path style="fill:#b3debe; stroke:none;" d="M389 549L390 550L389 549z"/>
<path style="fill:#addcb9; stroke:none;" d="M62.3333 550.667C62.2777 550.722 62.2223 551.778 62.6667 551.333C62.7222 551.278 62.7778 550.222 62.3333 550.667z"/>
<path style="fill:#98d3a8; stroke:none;" d="M562.333 551.667C562.278 551.722 562.222 552.778 562.667 552.333C562.722 552.278 562.778 551.222 562.333 551.667z"/>
<path style="fill:#d6ecdc; stroke:none;" d="M62 552L62 555C62.6961 553.446 62.6961 553.554 62 552z"/>
<path style="fill:#bfe4c9; stroke:none;" d="M388 552L389 553L388 552z"/>
<path style="fill:#80c893; stroke:none;" d="M388 553L389 554L388 553z"/>
<path style="fill:#cce9d4; stroke:none;" d="M562 553L562 556C562.696 554.446 562.696 554.554 562 553z"/>
<path style="fill:#98d3a8; stroke:none;" d="M236 554L237 555L236 554z"/>
<path style="fill:#bfe4c9; stroke:none;" d="M387 555L388 556L387 555z"/>
<path style="fill:#c1e5cb; stroke:none;" d="M237 556L238 557L237 556z"/>
<path style="fill:#73c388; stroke:none;" d="M387 556L388 557L387 556z"/>
<path style="fill:#84ca96; stroke:none;" d="M63.3333 557.667C63.2778 557.722 63.2223 558.778 63.6667 558.333C63.7222 558.278 63.7778 557.222 63.3333 557.667z"/>
<path style="fill:#98d3a8; stroke:none;" d="M386 558L387 559L386 558z"/>
<path style="fill:#65bd7c; stroke:none;" d="M561.333 558.667C561.278 558.722 561.222 559.778 561.667 559.333C561.722 559.278 561.778 558.222 561.333 558.667z"/>
<path style="fill:#addcb9; stroke:none;" d="M63.3333 559.667C63.2778 559.722 63.2223 560.778 63.6667 560.333C63.7223 560.278 63.7778 559.222 63.3333 559.667z"/>
<path style="fill:#98d3a8; stroke:none;" d="M238 559L239 560L238 559z"/>
<path style="fill:#b3debe; stroke:none;" d="M385 560L386 561L385 560z"/>
<path style="fill:#98d3a8; stroke:none;" d="M561.333 560.667C561.278 560.722 561.222 561.778 561.667 561.333C561.722 561.278 561.778 560.222 561.333 560.667z"/>
<path style="fill:#e1f2e6; stroke:none;" d="M63.3333 561.667C63.2778 561.722 63.2222 562.778 63.6667 562.333C63.7222 562.278 63.7778 561.222 63.3333 561.667z"/>
<path style="fill:#a2d7b1; stroke:none;" d="M239 561L240 562L239 561z"/>
<path style="fill:#d9efdf; stroke:none;" d="M561.333 562.667C561.278 562.722 561.222 563.778 561.667 563.333C561.722 563.278 561.778 562.222 561.333 562.667z"/>
<path style="fill:#addcb9; stroke:none;" d="M240 563L241 564L240 563z"/>
<path style="fill:#a2d7b1; stroke:none;" d="M64 565L64 568C64.6961 566.446 64.6961 566.554 64 565z"/>
<path style="fill:#addcb9; stroke:none;" d="M241 565L242 566L241 565z"/>
<path style="fill:#65bd7c; stroke:none;" d="M560.333 565.667C560.278 565.722 560.222 566.778 560.667 566.333C560.722 566.278 560.778 565.222 560.333 565.667z"/>
<path style="fill:#98d3a8; stroke:none;" d="M242 567L243 568L242 567z"/>
<path style="fill:#b3debe; stroke:none;" d="M560 567L560 570C560.696 568.446 560.696 568.554 560 567z"/>
<path style="fill:#a6d9b3; stroke:none;" d="M381 568L382 569L381 568z"/>
<path style="fill:#addcb9; stroke:none;" d="M244 570L245 571L244 570z"/>
<path style="fill:#80c893; stroke:none;" d="M380 570L381 571L380 570z"/>
<path style="fill:#a2d7b1; stroke:none;" d="M65 571L65 574C65.6961 572.446 65.6961 572.554 65 571z"/>
<path style="fill:#b7e0c2; stroke:none;" d="M246 573L247 574L246 573z"/>
<path style="fill:#8ecf9f; stroke:none;" d="M378 573L379 574L378 573z"/>
<path style="fill:#bfe4c9; stroke:none;" d="M559.333 573.667C559.278 573.722 559.222 574.778 559.667 574.333C559.722 574.278 559.778 573.222 559.333 573.667z"/>
<path style="fill:#a2d7b1; stroke:none;" d="M66 576L66 579C66.6961 577.446 66.6961 577.554 66 576z"/>
<path style="fill:#98d3a8; stroke:none;" d="M248 576L249 577L248 576z"/>
<path style="fill:#73c388; stroke:none;" d="M376 576L377 577L376 576z"/>
<path style="fill:#c1e5cb; stroke:none;" d="M249 577L250 578L249 577z"/>
<path style="fill:#98d3a8; stroke:none;" d="M375 577L376 578L375 577z"/>
<path style="fill:#bfe4c9; stroke:none;" d="M558.333 578.667C558.278 578.722 558.222 579.778 558.667 579.333C558.722 579.278 558.778 578.222 558.333 578.667z"/>
<path style="fill:#cce9d4; stroke:none;" d="M67.3333 582.667C67.2778 582.722 67.2222 583.778 67.6667 583.333C67.7223 583.278 67.7777 582.222 67.3333 582.667z"/>
<path style="fill:#98d3a8; stroke:none;" d="M253 582L254 583L253 582z"/>
<path style="fill:#80c893; stroke:none;" d="M371 582L372 583L371 582z"/>
<path style="fill:#98d3a8; stroke:none;" d="M557.333 582.667C557.278 582.722 557.222 583.778 557.667 583.333C557.722 583.278 557.778 582.222 557.333 582.667M254 583L255 584L254 583z"/>
<path style="fill:#80c893; stroke:none;" d="M370 583L371 584L370 583z"/>
<path style="fill:#98d3a8; stroke:none;" d="M255 584L256 585L255 584z"/>
<path style="fill:#80c893; stroke:none;" d="M369 584L370 585L369 584z"/>
<path style="fill:#98d3a8; stroke:none;" d="M256 585L257 586L256 585z"/>
<path style="fill:#80c893; stroke:none;" d="M368 585L369 586L368 585z"/>
<path style="fill:#c1e5cb; stroke:none;" d="M68.3333 586.667C68.2778 586.722 68.2222 587.778 68.6667 587.333C68.7223 587.278 68.7777 586.222 68.3333 586.667z"/>
<path style="fill:#98d3a8; stroke:none;" d="M257 586L258 587L257 586z"/>
<path style="fill:#80c893; stroke:none;" d="M367 586L368 587L367 586z"/>
<path style="fill:#a2d7b1; stroke:none;" d="M258 587L259 588L258 587z"/>
<path style="fill:#80c893; stroke:none;" d="M366 587L367 588L366 587z"/>
<path style="fill:#bfe4c9; stroke:none;" d="M556.333 587.667C556.278 587.722 556.222 588.778 556.667 588.333C556.722 588.278 556.778 587.222 556.333 587.667z"/>
<path style="fill:#c1e5cb; stroke:none;" d="M259 588L260 589L259 588M260 589L261 590L260 589z"/>
<path style="fill:#cce9d4; stroke:none;" d="M69.3333 590.667C69.2778 590.722 69.2222 591.778 69.6667 591.333C69.7223 591.278 69.7777 590.222 69.3333 590.667z"/>
<path style="fill:#c1e5cb; stroke:none;" d="M262 591L263 592L262 591z"/>
<path style="fill:#b3debe; stroke:none;" d="M361 591L362 592L361 591z"/>
<path style="fill:#cce9d4; stroke:none;" d="M555.333 591.667C555.278 591.722 555.222 592.778 555.667 592.333C555.722 592.278 555.778 591.222 555.333 591.667z"/>
<path style="fill:#a1d7af; stroke:none;" d="M263 592L264 593L263 592z"/>
<path style="fill:#80c893; stroke:none;" d="M360 592L361 593L360 592z"/>
<path style="fill:#d6ecdc; stroke:none;" d="M70.3333 594.667C70.2778 594.722 70.2222 595.778 70.6667 595.333C70.7223 595.278 70.7777 594.222 70.3333 594.667z"/>
<path style="fill:#98d3a8; stroke:none;" d="M357 594L358 595L357 594z"/>
<path style="fill:#a6d9b3; stroke:none;" d="M554.333 594.667C554.278 594.722 554.222 595.778 554.667 595.333C554.722 595.278 554.778 594.222 554.333 594.667z"/>
<path style="fill:#8ecf9f; stroke:none;" d="M267 595L268 596L267 595z"/>
<path style="fill:#98d3a8; stroke:none;" d="M354 596L355 597L354 596z"/>
<path style="fill:#73c388; stroke:none;" d="M270 597L271 598L270 597z"/>
<path style="fill:#bfe4c9; stroke:none;" d="M352 597L353 598L352 597z"/>
<path style="fill:#98d3a8; stroke:none;" d="M272 598L273 599L272 598z"/>
<path style="fill:#80c893; stroke:none;" d="M553 598L554 599L553 598z"/>
<path style="fill:#b3debe; stroke:none;" d="M274 599L275 600L274 599z"/>
<path style="fill:#80c893; stroke:none;" d="M349 599L350 600L349 599z"/>
<path style="fill:#bfe4c9; stroke:none;" d="M553 599L554 600L553 599z"/>
<path style="fill:#b3debe; stroke:none;" d="M276 600L277 601L276 600z"/>
<path style="fill:#80c893; stroke:none;" d="M347 600L348 601L347 600z"/>
<path style="fill:#e1f2e6; stroke:none;" d="M72.3333 601.667C72.2778 601.722 72.2222 602.778 72.6667 602.333C72.7223 602.278 72.7778 601.222 72.3333 601.667z"/>
<path style="fill:#98d3a8; stroke:none;" d="M278 601L279 602L278 601z"/>
<path style="fill:#73c388; stroke:none;" d="M345 601L346 602L345 601M552 601L553 602L552 601z"/>
<path style="fill:#80c893; stroke:none;" d="M280 602L281 603L280 602z"/>
<path style="fill:#b3debe; stroke:none;" d="M342 602L343 603L342 602M552 602L553 603L552 602M283 603L284 604L283 603z"/>
<path style="fill:#80c893; stroke:none;" d="M340 603L341 604L340 603z"/>
<path style="fill:#a2d7b1; stroke:none;" d="M73 604L74 605L73 604z"/>
<path style="fill:#80c893; stroke:none;" d="M285 604L286 605L285 604z"/>
<path style="fill:#bfe4c9; stroke:none;" d="M286 604L287 605L286 604z"/>
<path style="fill:#8ecf9f; stroke:none;" d="M337 604L338 605L337 604z"/>
<path style="fill:#73c388; stroke:none;" d="M288 605L289 606L288 605z"/>
<path style="fill:#8ecf9f; stroke:none;" d="M333.667 605.333C333.222 605.778 334.278 605.722 334.333 605.667C334.778 605.222 333.722 605.278 333.667 605.333z"/>
<path style="fill:#a6d9b3; stroke:none;" d="M551 605L552 606L551 605z"/>
<path style="fill:#b3debe; stroke:none;" d="M292.667 606.333C292.222 606.778 293.278 606.722 293.333 606.667C293.778 606.222 292.722 606.278 292.667 606.333z"/>
<path style="fill:#98d3a8; stroke:none;" d="M329.667 606.333C329.222 606.778 330.278 606.722 330.333 606.667C330.778 606.222 329.722 606.278 329.667 606.333z"/>
<path style="fill:#a2d7b1; stroke:none;" d="M74 607L75 608L74 607z"/>
<path style="fill:#b3debe; stroke:none;" d="M297 607C298.248 607.685 298.548 607.749 300 608C298.752 607.315 298.452 607.251 297 607z"/>
<path style="fill:#bfe4c9; stroke:none;" d="M323.667 607.333C323.222 607.778 324.278 607.722 324.333 607.667C324.778 607.222 323.722 607.278 323.667 607.333z"/>
<path style="fill:#73c388; stroke:none;" d="M325.667 607.333C325.222 607.778 326.278 607.722 326.333 607.667C326.778 607.222 325.722 607.278 325.667 607.333z"/>
<path style="fill:#65bd7c; stroke:none;" d="M302.667 608.333C302.222 608.778 303.278 608.722 303.333 608.667C303.778 608.222 302.722 608.278 302.667 608.333z"/>
<path style="fill:#98d3a8; stroke:none;" d="M304 608C305.506 608.683 306.315 608.826 308 609C306.494 608.317 305.685 608.174 304 608z"/>
<path style="fill:#cce9d4; stroke:none;" d="M308 608C310.613 609.098 313.165 608.993 316 609C313.387 607.902 310.835 608.007 308 608z"/>
<path style="fill:#98d3a8; stroke:none;" d="M316 608C317.248 608.685 317.548 608.749 319 609C317.752 608.315 317.452 608.251 316 608z"/>
<path style="fill:#65bd7c; stroke:none;" d="M319.667 608.333C319.222 608.778 320.278 608.722 320.333 608.667C320.778 608.222 319.722 608.278 319.667 608.333z"/>
<path style="fill:#a6d9b3; stroke:none;" d="M550 608L551 609L550 608z"/>
<path style="fill:#a2d7b1; stroke:none;" d="M75 610L76 611L75 610z"/>
<path style="fill:#b3debe; stroke:none;" d="M549 611L550 612L549 611z"/>
<path style="fill:#73c388; stroke:none;" d="M548 613L549 614L548 613z"/>
<path style="fill:#b3debe; stroke:none;" d="M548 614L549 615L548 614z"/>
<path style="fill:#c1e5cb; stroke:none;" d="M77 616L78 617L77 616z"/>
<path style="fill:#80c893; stroke:none;" d="M547 616L548 617L547 616z"/>
<path style="fill:#98d3a8; stroke:none;" d="M78 618L79 619L78 618z"/>
<path style="fill:#a6d9b3; stroke:none;" d="M546 619L547 620L546 619z"/>
<path style="fill:#80c893; stroke:none;" d="M545 621L546 622L545 621z"/>
<path style="fill:#98d3a8; stroke:none;" d="M80 623L81 624L80 623z"/>
<path style="fill:#b3debe; stroke:none;" d="M544 624L545 625L544 624z"/>
<path style="fill:#80c893; stroke:none;" d="M543 626L544 627L543 626z"/>
<path style="fill:#b7e0c2; stroke:none;" d="M82 628L83 629L82 628z"/>
<path style="fill:#a2d7b1; stroke:none;" d="M83 630L84 631L83 630z"/>
<path style="fill:#b3debe; stroke:none;" d="M541 631L542 632L541 631z"/>
<path style="fill:#98d3a8; stroke:none;" d="M84 632L85 633L84 632M540 633L541 634L540 633M539 635L540 636L539 635z"/>
<path style="fill:#80c893; stroke:none;" d="M538 637L539 638L538 637M537 639L538 640L537 639M536 641L537 642L536 641z"/>
<path style="fill:#8ecf9f; stroke:none;" d="M535 643L536 644L535 643z"/>
<path style="fill:#98d3a8; stroke:none;" d="M534 645L535 646L534 645M91 646L92 647L91 646M533 647L534 648L533 647z"/>
<path style="fill:#a2d7b1; stroke:none;" d="M92 648L93 649L92 648z"/>
<path style="fill:#b3debe; stroke:none;" d="M532 649L533 650L532 649z"/>
<path style="fill:#addcb9; stroke:none;" d="M93 650L94 651L93 650z"/>
<path style="fill:#73c388; stroke:none;" d="M530 652L531 653L530 652z"/>
<path style="fill:#98d3a8; stroke:none;" d="M529 654L530 655L529 654z"/>
<path style="fill:#a2d7b1; stroke:none;" d="M96 655L97 656L96 655z"/>
<path style="fill:#bfe4c9; stroke:none;" d="M528 656L529 657L528 656z"/>
<path style="fill:#c1e5cb; stroke:none;" d="M97 657L98 658L97 657z"/>
<path style="fill:#98d3a8; stroke:none;" d="M526 659L527 660L526 659z"/>
<path style="fill:#addcb9; stroke:none;" d="M99 660L100 661L99 660z"/>
<path style="fill:#80c893; stroke:none;" d="M524 662L525 663L524 662z"/>
<path style="fill:#a2d7b1; stroke:none;" d="M101 663L102 664L101 663z"/>
<path style="fill:#bfe4c9; stroke:none;" d="M523 664L524 665L523 664z"/>
<path style="fill:#73c388; stroke:none;" d="M522 665L523 666L522 665z"/>
<path style="fill:#bfe4c9; stroke:none;" d="M521 667L522 668L521 667z"/>
<path style="fill:#73c388; stroke:none;" d="M520 668L521 669L520 668z"/>
<path style="fill:#98d3a8; stroke:none;" d="M105 669L106 670L105 669z"/>
<path style="fill:#bfe4c9; stroke:none;" d="M519 670L520 671L519 670z"/>
<path style="fill:#73c388; stroke:none;" d="M518 671L519 672L518 671z"/>
<path style="fill:#addcb9; stroke:none;" d="M107 672L108 673L107 672z"/>
<path style="fill:#98d3a8; stroke:none;" d="M516 674L517 675L516 674z"/>
<path style="fill:#c1e5cb; stroke:none;" d="M109 675L110 676L109 675z"/>
<path style="fill:#98d3a8; stroke:none;" d="M110 676L111 677L110 676z"/>
<path style="fill:#bfe4c9; stroke:none;" d="M514 677L515 678L514 677z"/>
<path style="fill:#8ecf9f; stroke:none;" d="M513 678L514 679L513 678z"/>
<path style="fill:#c1e5cb; stroke:none;" d="M112 679L113 680L112 679z"/>
<path style="fill:#98d3a8; stroke:none;" d="M113 680L114 681L113 680z"/>
<path style="fill:#bfe4c9; stroke:none;" d="M511 681L512 682L511 681z"/>
<path style="fill:#98d3a8; stroke:none;" d="M510 682L511 683L510 682z"/>
<path style="fill:#73c388; stroke:none;" d="M509 683L510 684L509 683z"/>
<path style="fill:#b7e0c2; stroke:none;" d="M116 684L117 685L116 684z"/>
<path style="fill:#98d3a8; stroke:none;" d="M117 685L118 686L117 685z"/>
<path style="fill:#bfe4c9; stroke:none;" d="M507 686L508 687L507 686z"/>
<path style="fill:#98d3a8; stroke:none;" d="M506 687L507 688L506 687z"/>
<path style="fill:#80c893; stroke:none;" d="M505 688L506 689L505 688z"/>
<path style="fill:#c1e5cb; stroke:none;" d="M120 689L121 690L120 689z"/>
<path style="fill:#addcb9; stroke:none;" d="M121 690L122 691L121 690z"/>
<path style="fill:#98d3a8; stroke:none;" d="M122 691L123 692L122 691z"/>
<path style="fill:#bfe4c9; stroke:none;" d="M502 692L503 693L502 692z"/>
<path style="fill:#b3debe; stroke:none;" d="M501 693L502 694L501 693z"/>
<path style="fill:#98d3a8; stroke:none;" d="M500 694L501 695L500 694z"/>
<path style="fill:#80c893; stroke:none;" d="M499 695L500 696L499 695z"/>
<path style="fill:#73c388; stroke:none;" d="M498 696L499 697L498 696z"/>
<path style="fill:#c1e5cb; stroke:none;" d="M127 697L128 698L127 697M128 698L129 699L128 698M129 699L130 700L129 699M130 700L131 701L130 700z"/>
<path style="fill:#98d3a8; stroke:none;" d="M131 701L132 702L131 701M132 702L133 703L132 702M133 703L134 704L133 703z"/>
<path style="fill:#80c893; stroke:none;" d="M134.333 704.667C134.278 704.722 134.222 705.778 134.667 705.333C134.722 705.278 134.778 704.222 134.333 704.667z"/>
<path style="fill:#b3debe; stroke:none;" d="M143 714L144 715L143 714z"/>
<path style="fill:#80c893; stroke:none;" d="M480 714L481 715L480 714z"/>
<path style="fill:#b3debe; stroke:none;" d="M144 715L145 716L144 715z"/>
<path style="fill:#80c893; stroke:none;" d="M479 715L480 716L479 715z"/>
<path style="fill:#a6d9b3; stroke:none;" d="M478 716L479 717L478 716z"/>
<path style="fill:#b3debe; stroke:none;" d="M477 717L478 718L477 717z"/>
<path style="fill:#73c388; stroke:none;" d="M149 719L150 720L149 719z"/>
<path style="fill:#8ecf9f; stroke:none;" d="M150 720L151 721L150 720z"/>
<path style="fill:#b3debe; stroke:none;" d="M151 721L152 722L151 721z"/>
<path style="fill:#80c893; stroke:none;" d="M472 721L473 722L472 721z"/>
<path style="fill:#b3debe; stroke:none;" d="M471 722L472 723L471 722z"/>
<path style="fill:#80c893; stroke:none;" d="M155 724L156 725L155 724z"/>
<path style="fill:#a6d9b3; stroke:none;" d="M156 725L157 726L156 725z"/>
<path style="fill:#80c893; stroke:none;" d="M467 725L468 726L467 725z"/>
<path style="fill:#a6d9b3; stroke:none;" d="M466 726L467 727L466 726z"/>
<path style="fill:#8ecf9f; stroke:none;" d="M160 728L161 729L160 728z"/>
<path style="fill:#bfe4c9; stroke:none;" d="M161 729L162 730L161 729z"/>
<path style="fill:#98d3a8; stroke:none;" d="M462 729L463 730L462 729M164 731L165 732L164 731z"/>
<path style="fill:#73c388; stroke:none;" d="M459 731L460 732L459 731z"/>
<path style="fill:#a6d9b3; stroke:none;" d="M458 732L459 733L458 732z"/>
<path style="fill:#73c388; stroke:none;" d="M167 733L168 734L167 733z"/>
<path style="fill:#bfe4c9; stroke:none;" d="M168 734L169 735L168 734z"/>
<path style="fill:#98d3a8; stroke:none;" d="M455 734L456 735L455 734z"/>
<path style="fill:#a6d9b3; stroke:none;" d="M171 736L172 737L171 736z"/>
<path style="fill:#8ecf9f; stroke:none;" d="M452 736L453 737L452 736z"/>
<path style="fill:#a6d9b3; stroke:none;" d="M174 738L175 739L174 738z"/>
<path style="fill:#8ecf9f; stroke:none;" d="M449 738L450 739L449 738z"/>
<path style="fill:#73c388; stroke:none;" d="M176 739L177 740L176 739z"/>
<path style="fill:#bfe4c9; stroke:none;" d="M177 740L178 741L177 740z"/>
<path style="fill:#98d3a8; stroke:none;" d="M446 740L447 741L446 740z"/>
<path style="fill:#8ecf9f; stroke:none;" d="M179 741L180 742L179 741z"/>
<path style="fill:#bfe4c9; stroke:none;" d="M443 742L444 743L443 742z"/>
<path style="fill:#a6d9b3; stroke:none;" d="M182 743L183 744L182 743z"/>
<path style="fill:#8ecf9f; stroke:none;" d="M441 743L442 744L441 743z"/>
<path style="fill:#80c893; stroke:none;" d="M184 744L185 745L184 744z"/>
<path style="fill:#bfe4c9; stroke:none;" d="M438 745L439 746L438 745z"/>
<path style="fill:#b3debe; stroke:none;" d="M187 746L188 747L187 746z"/>
<path style="fill:#98d3a8; stroke:none;" d="M436 746L437 747L436 746M189 747L190 748L189 747z"/>
<path style="fill:#80c893; stroke:none;" d="M434 747L435 748L434 747M191 748L192 749L191 748M193 749L194 750L193 749z"/>
<path style="fill:#b3debe; stroke:none;" d="M429 750L430 751L429 750M427 751L428 752L427 751M425 752L426 753L425 752M423 753L424 754L423 753M421 754L422 755L421 754z"/>
<path style="fill:#80c893; stroke:none;" d="M205 755L206 756L205 755z"/>
<path style="fill:#bfe4c9; stroke:none;" d="M419 755L420 756L419 755z"/>
<path style="fill:#80c893; stroke:none;" d="M207 756L208 757L207 756z"/>
<path style="fill:#98d3a8; stroke:none;" d="M209 757L210 758L209 757z"/>
<path style="fill:#80c893; stroke:none;" d="M414 757L415 758L414 757z"/>
<path style="fill:#b3debe; stroke:none;" d="M211 758L212 759L211 758z"/>
<path style="fill:#98d3a8; stroke:none;" d="M412 758L413 759L412 758z"/>
<path style="fill:#80c893; stroke:none;" d="M214 759L215 760L214 759z"/>
<path style="fill:#b3debe; stroke:none;" d="M410 759L411 760L410 759z"/>
<path style="fill:#98d3a8; stroke:none;" d="M216 760L217 761L216 760z"/>
<path style="fill:#80c893; stroke:none;" d="M407 760L408 761L407 760z"/>
<path style="fill:#bfe4c9; stroke:none;" d="M218 761L219 762L218 761z"/>
<path style="fill:#73c388; stroke:none;" d="M219 761L220 762L219 761z"/>
<path style="fill:#b3debe; stroke:none;" d="M405 761L406 762L405 761z"/>
<path style="fill:#a6d9b3; stroke:none;" d="M221 762L222 763L221 762z"/>
<path style="fill:#8ecf9f; stroke:none;" d="M402 762L403 763L402 762z"/>
<path style="fill:#80c893; stroke:none;" d="M224 763L225 764L224 763z"/>
<path style="fill:#73c388; stroke:none;" d="M399 763L400 764L399 763z"/>
<path style="fill:#b3debe; stroke:none;" d="M400 763L401 764L400 763M226 764L227 765L226 764z"/>
<path style="fill:#73c388; stroke:none;" d="M227 764L228 765L227 764z"/>
<path style="fill:#a6d9b3; stroke:none;" d="M397 764L398 765L397 764z"/>
<path style="fill:#b3debe; stroke:none;" d="M229 765L230 766L229 765z"/>
<path style="fill:#a6d9b3; stroke:none;" d="M394 765L395 766L394 765M232 766L233 767L232 766z"/>
<path style="fill:#8ecf9f; stroke:none;" d="M391 766L392 767L391 766z"/>
<path style="fill:#b3debe; stroke:none;" d="M235 767L236 768L235 767z"/>
<path style="fill:#73c388; stroke:none;" d="M236 767L237 768L236 767z"/>
<path style="fill:#a6d9b3; stroke:none;" d="M388 767L389 768L388 767z"/>
<path style="fill:#bfe4c9; stroke:none;" d="M238 768L239 769L238 768z"/>
<path style="fill:#80c893; stroke:none;" d="M239 768L240 769L239 768z"/>
<path style="fill:#73c388; stroke:none;" d="M384 768L385 769L384 768z"/>
<path style="fill:#98d3a8; stroke:none;" d="M242 769L243 770L242 769z"/>
<path style="fill:#bfe4c9; stroke:none;" d="M381.667 769.333C381.222 769.778 382.278 769.722 382.333 769.667C382.778 769.222 381.722 769.278 381.667 769.333z"/>
<path style="fill:#80c893; stroke:none;" d="M245.667 770.333C245.222 770.778 246.278 770.722 246.333 770.667C246.778 770.222 245.722 770.278 245.667 770.333z"/>
<path style="fill:#a6d9b3; stroke:none;" d="M377.667 770.333C377.222 770.778 378.278 770.722 378.333 770.667C378.778 770.222 377.722 770.278 377.667 770.333z"/>
<path style="fill:#73c388; stroke:none;" d="M249.667 771.333C249.222 771.778 250.278 771.722 250.333 771.667C250.778 771.222 249.722 771.278 249.667 771.333z"/>
<path style="fill:#98d3a8; stroke:none;" d="M374 771L375 772L374 771z"/>
<path style="fill:#80c893; stroke:none;" d="M253.667 772.333C253.222 772.778 254.278 772.722 254.333 772.667C254.778 772.222 253.722 772.278 253.667 772.333z"/>
<path style="fill:#a6d9b3; stroke:none;" d="M369 772C370.248 772.685 370.548 772.749 372 773C370.752 772.315 370.452 772.251 369 772z"/>
<path style="fill:#98d3a8; stroke:none;" d="M257.667 773.333C257.222 773.778 258.278 773.722 258.333 773.667C258.778 773.222 257.722 773.278 257.667 773.333z"/>
<path style="fill:#b3debe; stroke:none;" d="M365.667 773.333C365.222 773.778 366.278 773.722 366.333 773.667C366.778 773.222 365.722 773.278 365.667 773.333z"/>
<path style="fill:#8ecf9f; stroke:none;" d="M262 774C263.248 774.685 263.548 774.749 265 775C263.752 774.315 263.452 774.251 262 774z"/>
<path style="fill:#a6d9b3; stroke:none;" d="M360 774C361.248 774.685 361.548 774.749 363 775C361.752 774.315 361.452 774.251 360 774z"/>
<path style="fill:#98d3a8; stroke:none;" d="M267.667 775.333C267.222 775.778 268.278 775.722 268.333 775.667C268.778 775.222 267.722 775.278 267.667 775.333z"/>
<path style="fill:#59b873; stroke:none;" d="M269.667 775.333C269.222 775.778 270.278 775.722 270.333 775.667C270.778 775.222 269.722 775.278 269.667 775.333z"/>
<path style="fill:#b3debe; stroke:none;" d="M355.667 775.333C355.222 775.778 356.278 775.722 356.333 775.667C356.778 775.222 355.722 775.278 355.667 775.333z"/>
<path style="fill:#cce9d4; stroke:none;" d="M272.667 776.333C272.222 776.778 273.278 776.722 273.333 776.667C273.778 776.222 272.722 776.278 272.667 776.333z"/>
<path style="fill:#80c893; stroke:none;" d="M274 776C275.248 776.685 275.548 776.749 277 777C275.752 776.315 275.451 776.251 274 776z"/>
<path style="fill:#73c388; stroke:none;" d="M347 776C348.248 776.685 348.548 776.749 350 777C348.752 776.315 348.452 776.251 347 776z"/>
<path style="fill:#cce9d4; stroke:none;" d="M350.667 776.333C350.222 776.778 351.278 776.722 351.333 776.667C351.778 776.222 350.722 776.278 350.667 776.333M279.667 777.333C279.222 777.778 280.278 777.722 280.333 777.667C280.778 777.222 279.722 777.278 279.667 777.333z"/>
<path style="fill:#98d3a8; stroke:none;" d="M281.667 777.333C281.222 777.778 282.278 777.722 282.333 777.667C282.778 777.222 281.722 777.278 281.667 777.333z"/>
<path style="fill:#65bd7c; stroke:none;" d="M283.667 777.333C283.222 777.778 284.278 777.722 284.333 777.667C284.778 777.222 283.722 777.278 283.667 777.333M339.667 777.333C339.222 777.778 340.278 777.722 340.333 777.667C340.778 777.222 339.722 777.278 339.667 777.333z"/>
<path style="fill:#98d3a8; stroke:none;" d="M341.667 777.333C341.222 777.778 342.278 777.722 342.333 777.667C342.778 777.222 341.722 777.278 341.667 777.333z"/>
<path style="fill:#cce9d4; stroke:none;" d="M343.667 777.333C343.222 777.778 344.278 777.722 344.333 777.667C344.778 777.222 343.722 777.278 343.667 777.333M288 778C289.248 778.685 289.548 778.749 291 779C289.752 778.315 289.452 778.251 288 778z"/>
<path style="fill:#98d3a8; stroke:none;" d="M291 778C292.248 778.685 292.548 778.749 294 779C292.752 778.315 292.452 778.251 291 778z"/>
<path style="fill:#65bd7c; stroke:none;" d="M294 778C295.506 778.683 296.315 778.826 298 779C296.494 778.317 295.685 778.174 294 778M326 778C327.506 778.683 328.315 778.826 330 779C328.494 778.317 327.685 778.174 326 778z"/>
<path style="fill:#98d3a8; stroke:none;" d="M330 778C331.248 778.685 331.548 778.749 333 779C331.752 778.315 331.452 778.251 330 778z"/>
<path style="fill:#cce9d4; stroke:none;" d="M333 778C334.248 778.685 334.548 778.749 336 779C334.752 778.315 334.452 778.251 333 778M304 779C308.724 780.982 314.91 780 320 780C315.276 778.018 309.09 779 304 779z"/>
</svg>
